<?xml version="1.0" encoding="UTF-8" standalone="no"?><svg xmlns="http://www.w3.org/2000/svg" xmlns:xlink="http://www.w3.org/1999/xlink" contentScriptType="application/ecmascript" contentStyleType="text/css" height="1744px" preserveAspectRatio="none" style="width:433px;height:1744px;" version="1.1" viewBox="0 0 433 1744" width="433px" zoomAndPan="magnify"><defs><filter height="300%" id="f1287w4egjn8j" width="300%" x="-1" y="-1"><feGaussianBlur result="blurOut" stdDeviation="2.0"/><feColorMatrix in="blurOut" result="blurOut2" type="matrix" values="0 0 0 0 0 0 0 0 0 0 0 0 0 0 0 0 0 0 .4 0"/><feOffset dx="4.0" dy="4.0" in="blurOut2" result="blurOut3"/><feBlend in="SourceGraphic" in2="blurOut3" mode="normal"/></filter></defs><g><!--cluster socketserver--><polygon fill="#FFFFFF" filter="url(#f1287w4egjn8j)" points="32,24,132,24,139,49.1201,410,49.1201,410,669,32,669,32,24" style="stroke: #000000; stroke-width: 1.5;"/><line style="stroke: #000000; stroke-width: 1.5;" x1="32" x2="139" y1="49.1201" y2="49.1201"/><text fill="#000000" font-family="sans-serif" font-size="14" font-weight="bold" lengthAdjust="spacingAndGlyphs" textLength="94" x="36" y="42.0439">socketserver</text><!--cluster http--><polygon fill="#FFFFFF" filter="url(#f1287w4egjn8j)" points="22,693,56,693,63,718.1201,411,718.1201,411,1306,22,1306,22,693" style="stroke: #000000; stroke-width: 1.5;"/><line style="stroke: #000000; stroke-width: 1.5;" x1="22" x2="63" y1="718.1201" y2="718.1201"/><text fill="#000000" font-family="sans-serif" font-size="14" font-weight="bold" lengthAdjust="spacingAndGlyphs" textLength="28" x="26" y="711.0439">http</text><!--cluster werkzeug--><polygon fill="#FFFFFF" filter="url(#f1287w4egjn8j)" points="44,1330,118,1330,125,1355.1201,403,1355.1201,403,1732,44,1732,44,1330" style="stroke: #000000; stroke-width: 1.5;"/><line style="stroke: #000000; stroke-width: 1.5;" x1="44" x2="125" y1="1355.1201" y2="1355.1201"/><text fill="#000000" font-family="sans-serif" font-size="14" font-weight="bold" lengthAdjust="spacingAndGlyphs" textLength="68" x="48" y="1348.0439">werkzeug</text><!--class socketserver.BaseServer--><rect fill="#FEFECE" filter="url(#f1287w4egjn8j)" height="288.3672" id="socketserver.BaseServer" style="stroke: #A80036; stroke-width: 1.5;" width="116" x="262" y="62"/><ellipse cx="286" cy="78" fill="#ADD1B2" rx="11" ry="11" style="stroke: #A80036; stroke-width: 1.0;"/><path d="M284.5781,83.3594 Q282.7188,83.3594 281.625,81.9688 Q280.5313,80.5781 280.5313,77.5938 Q280.5313,75.0625 281.6953,73.4063 Q282.8594,71.75 284.8438,71.75 Q286.3125,71.75 286.7813,71.875 Q287.25,72.0781 287.25,72.0781 Q287.25,72.0781 287.25,72.0078 Q287.25,71.9375 287.8594,71.0156 L288.9063,74.6719 L287.5781,75.0781 Q287.1094,73.5313 286.4453,72.8672 Q285.7813,72.2031 284.7188,72.2031 Q284.3281,72.2031 283.5625,73.7344 Q282.7969,75.2656 282.7969,77.5156 Q282.7969,79.9844 283.4609,81.375 Q284.125,82.7656 284.6563,82.7656 Q285.7188,82.7656 286.4766,82 Q287.2344,81.2344 287.5781,79.5781 L288.9063,80.1719 Q288.5781,81.5781 287.6797,82.4688 Q286.7813,83.3594 284.5781,83.3594 Z "/><text fill="#000000" font-family="sans-serif" font-size="12" lengthAdjust="spacingAndGlyphs" textLength="64" x="302" y="83.5576">BaseServer</text><line style="stroke: #A80036; stroke-width: 1.5;" x1="263" x2="377" y1="94" y2="94"/><text fill="#000000" font-family="sans-serif" font-size="11" lengthAdjust="spacingAndGlyphs" textLength="104" x="268" y="110.606">RequestHandlerClass</text><text fill="#000000" font-family="sans-serif" font-size="11" lengthAdjust="spacingAndGlyphs" textLength="78" x="268" y="125.6289">server_address</text><text fill="#000000" font-family="sans-serif" font-size="11" lengthAdjust="spacingAndGlyphs" textLength="92" x="268" y="140.6519">timeout : NoneType</text><line style="stroke: #A80036; stroke-width: 1.5;" x1="263" x2="377" y1="147.0688" y2="147.0688"/><text fill="#000000" font-family="sans-serif" font-size="11" lengthAdjust="spacingAndGlyphs" textLength="77" x="268" y="163.6748">close_request()</text><text fill="#000000" font-family="sans-serif" font-size="11" lengthAdjust="spacingAndGlyphs" textLength="77" x="268" y="178.6978">finish_request()</text><text fill="#000000" font-family="sans-serif" font-size="11" lengthAdjust="spacingAndGlyphs" textLength="70" x="268" y="193.7207">handle_error()</text><text fill="#000000" font-family="sans-serif" font-size="11" lengthAdjust="spacingAndGlyphs" textLength="83" x="268" y="208.7437">handle_request()</text><text fill="#000000" font-family="sans-serif" font-size="11" lengthAdjust="spacingAndGlyphs" textLength="80" x="268" y="223.7666">handle_timeout()</text><text fill="#000000" font-family="sans-serif" font-size="11" lengthAdjust="spacingAndGlyphs" textLength="91" x="268" y="238.7896">process_request()</text><text fill="#000000" font-family="sans-serif" font-size="11" lengthAdjust="spacingAndGlyphs" textLength="78" x="268" y="253.8125">serve_forever()</text><text fill="#000000" font-family="sans-serif" font-size="11" lengthAdjust="spacingAndGlyphs" textLength="84" x="268" y="268.8354">server_activate()</text><text fill="#000000" font-family="sans-serif" font-size="11" lengthAdjust="spacingAndGlyphs" textLength="72" x="268" y="283.8584">server_close()</text><text fill="#000000" font-family="sans-serif" font-size="11" lengthAdjust="spacingAndGlyphs" textLength="85" x="268" y="298.8813">service_actions()</text><text fill="#000000" font-family="sans-serif" font-size="11" lengthAdjust="spacingAndGlyphs" textLength="57" x="268" y="313.9043">shutdown()</text><text fill="#000000" font-family="sans-serif" font-size="11" lengthAdjust="spacingAndGlyphs" textLength="100" x="268" y="328.9272">shutdown_request()</text><text fill="#000000" font-family="sans-serif" font-size="11" lengthAdjust="spacingAndGlyphs" textLength="79" x="268" y="343.9502">verify_request()</text><!--class socketserver.TCPServer--><rect fill="#FEFECE" filter="url(#f1287w4egjn8j)" height="243.2983" id="socketserver.TCPServer" style="stroke: #A80036; stroke-width: 1.5;" width="147" x="246.5" y="410"/><ellipse cx="286.7" cy="426" fill="#ADD1B2" rx="11" ry="11" style="stroke: #A80036; stroke-width: 1.0;"/><path d="M285.2781,431.3594 Q283.4188,431.3594 282.325,429.9688 Q281.2313,428.5781 281.2313,425.5938 Q281.2313,423.0625 282.3953,421.4063 Q283.5594,419.75 285.5438,419.75 Q287.0125,419.75 287.4813,419.875 Q287.95,420.0781 287.95,420.0781 Q287.95,420.0781 287.95,420.0078 Q287.95,419.9375 288.5594,419.0156 L289.6063,422.6719 L288.2781,423.0781 Q287.8094,421.5313 287.1453,420.8672 Q286.4813,420.2031 285.4188,420.2031 Q285.0281,420.2031 284.2625,421.7344 Q283.4969,423.2656 283.4969,425.5156 Q283.4969,427.9844 284.1609,429.375 Q284.825,430.7656 285.3563,430.7656 Q286.4188,430.7656 287.1766,430 Q287.9344,429.2344 288.2781,427.5781 L289.6063,428.1719 Q289.2781,429.5781 288.3797,430.4688 Q287.4813,431.3594 285.2781,431.3594 Z "/><text fill="#000000" font-family="sans-serif" font-size="12" lengthAdjust="spacingAndGlyphs" textLength="59" x="306.3" y="431.5576">TCPServer</text><line style="stroke: #A80036; stroke-width: 1.5;" x1="247.5" x2="392.5" y1="442" y2="442"/><text fill="#000000" font-family="sans-serif" font-size="11" lengthAdjust="spacingAndGlyphs" textLength="94" x="252.5" y="458.606">address_family : int</text><text fill="#000000" font-family="sans-serif" font-size="11" lengthAdjust="spacingAndGlyphs" textLength="135" x="252.5" y="473.6289">allow_reuse_address : bool</text><text fill="#000000" font-family="sans-serif" font-size="11" lengthAdjust="spacingAndGlyphs" textLength="119" x="252.5" y="488.6519">request_queue_size : int</text><text fill="#000000" font-family="sans-serif" font-size="11" lengthAdjust="spacingAndGlyphs" textLength="78" x="252.5" y="503.6748">server_address</text><text fill="#000000" font-family="sans-serif" font-size="11" lengthAdjust="spacingAndGlyphs" textLength="73" x="252.5" y="518.6978">socket : socket</text><text fill="#000000" font-family="sans-serif" font-size="11" lengthAdjust="spacingAndGlyphs" textLength="79" x="252.5" y="533.7207">socket_type : int</text><line style="stroke: #A80036; stroke-width: 1.5;" x1="247.5" x2="392.5" y1="540.1377" y2="540.1377"/><text fill="#000000" font-family="sans-serif" font-size="11" lengthAdjust="spacingAndGlyphs" textLength="77" x="252.5" y="556.7437">close_request()</text><text fill="#000000" font-family="sans-serif" font-size="11" lengthAdjust="spacingAndGlyphs" textLength="34" x="252.5" y="571.7666">fileno()</text><text fill="#000000" font-family="sans-serif" font-size="11" lengthAdjust="spacingAndGlyphs" textLength="66" x="252.5" y="586.7896">get_request()</text><text fill="#000000" font-family="sans-serif" font-size="11" lengthAdjust="spacingAndGlyphs" textLength="84" x="252.5" y="601.8125">server_activate()</text><text fill="#000000" font-family="sans-serif" font-size="11" lengthAdjust="spacingAndGlyphs" textLength="66" x="252.5" y="616.8354">server_bind()</text><text fill="#000000" font-family="sans-serif" font-size="11" lengthAdjust="spacingAndGlyphs" textLength="72" x="252.5" y="631.8584">server_close()</text><text fill="#000000" font-family="sans-serif" font-size="11" lengthAdjust="spacingAndGlyphs" textLength="100" x="252.5" y="646.8813">shutdown_request()</text><!--class socketserver.BaseRequestHandler--><rect fill="#FEFECE" filter="url(#f1287w4egjn8j)" height="138.1377" id="socketserver.BaseRequestHandler" style="stroke: #A80036; stroke-width: 1.5;" width="152" x="54" y="137"/><ellipse cx="69" cy="153" fill="#ADD1B2" rx="11" ry="11" style="stroke: #A80036; stroke-width: 1.0;"/><path d="M67.5781,158.3594 Q65.7188,158.3594 64.625,156.9688 Q63.5313,155.5781 63.5313,152.5938 Q63.5313,150.0625 64.6953,148.4063 Q65.8594,146.75 67.8438,146.75 Q69.3125,146.75 69.7813,146.875 Q70.25,147.0781 70.25,147.0781 Q70.25,147.0781 70.25,147.0078 Q70.25,146.9375 70.8594,146.0156 L71.9063,149.6719 L70.5781,150.0781 Q70.1094,148.5313 69.4453,147.8672 Q68.7813,147.2031 67.7188,147.2031 Q67.3281,147.2031 66.5625,148.7344 Q65.7969,150.2656 65.7969,152.5156 Q65.7969,154.9844 66.4609,156.375 Q67.125,157.7656 67.6563,157.7656 Q68.7188,157.7656 69.4766,157 Q70.2344,156.2344 70.5781,154.5781 L71.9063,155.1719 Q71.5781,156.5781 70.6797,157.4688 Q69.7813,158.3594 67.5781,158.3594 Z "/><text fill="#000000" font-family="sans-serif" font-size="12" lengthAdjust="spacingAndGlyphs" textLength="120" x="83" y="158.5576">BaseRequestHandler</text><line style="stroke: #A80036; stroke-width: 1.5;" x1="55" x2="205" y1="169" y2="169"/><text fill="#000000" font-family="sans-serif" font-size="11" lengthAdjust="spacingAndGlyphs" textLength="71" x="60" y="185.606">client_address</text><text fill="#000000" font-family="sans-serif" font-size="11" lengthAdjust="spacingAndGlyphs" textLength="37" x="60" y="200.6289">request</text><text fill="#000000" font-family="sans-serif" font-size="11" lengthAdjust="spacingAndGlyphs" textLength="32" x="60" y="215.6519">server</text><line style="stroke: #A80036; stroke-width: 1.5;" x1="55" x2="205" y1="222.0688" y2="222.0688"/><text fill="#000000" font-family="sans-serif" font-size="11" lengthAdjust="spacingAndGlyphs" textLength="34" x="60" y="238.6748">finish()</text><text fill="#000000" font-family="sans-serif" font-size="11" lengthAdjust="spacingAndGlyphs" textLength="40" x="60" y="253.6978">handle()</text><text fill="#000000" font-family="sans-serif" font-size="11" lengthAdjust="spacingAndGlyphs" textLength="35" x="60" y="268.7207">setup()</text><!--class socketserver.StreamRequestHandler--><rect fill="#FEFECE" filter="url(#f1287w4egjn8j)" height="183.2065" id="socketserver.StreamRequestHandler" style="stroke: #A80036; stroke-width: 1.5;" width="163" x="48.5" y="440"/><ellipse cx="63.5" cy="456" fill="#ADD1B2" rx="11" ry="11" style="stroke: #A80036; stroke-width: 1.0;"/><path d="M62.0781,461.3594 Q60.2188,461.3594 59.125,459.9688 Q58.0313,458.5781 58.0313,455.5938 Q58.0313,453.0625 59.1953,451.4063 Q60.3594,449.75 62.3438,449.75 Q63.8125,449.75 64.2813,449.875 Q64.75,450.0781 64.75,450.0781 Q64.75,450.0781 64.75,450.0078 Q64.75,449.9375 65.3594,449.0156 L66.4063,452.6719 L65.0781,453.0781 Q64.6094,451.5313 63.9453,450.8672 Q63.2813,450.2031 62.2188,450.2031 Q61.8281,450.2031 61.0625,451.7344 Q60.2969,453.2656 60.2969,455.5156 Q60.2969,457.9844 60.9609,459.375 Q61.625,460.7656 62.1563,460.7656 Q63.2188,460.7656 63.9766,460 Q64.7344,459.2344 65.0781,457.5781 L66.4063,458.1719 Q66.0781,459.5781 65.1797,460.4688 Q64.2813,461.3594 62.0781,461.3594 Z "/><text fill="#000000" font-family="sans-serif" font-size="12" lengthAdjust="spacingAndGlyphs" textLength="131" x="77.5" y="461.5576">StreamRequestHandler</text><line style="stroke: #A80036; stroke-width: 1.5;" x1="49.5" x2="210.5" y1="472" y2="472"/><text fill="#000000" font-family="sans-serif" font-size="11" lengthAdjust="spacingAndGlyphs" textLength="53" x="54.5" y="488.606">connection</text><text fill="#000000" font-family="sans-serif" font-size="11" lengthAdjust="spacingAndGlyphs" textLength="144" x="54.5" y="503.6289">disable_nagle_algorithm : bool</text><text fill="#000000" font-family="sans-serif" font-size="11" lengthAdjust="spacingAndGlyphs" textLength="60" x="54.5" y="518.6519">rbufsize : int</text><text fill="#000000" font-family="sans-serif" font-size="11" lengthAdjust="spacingAndGlyphs" textLength="18" x="54.5" y="533.6748">rfile</text><text fill="#000000" font-family="sans-serif" font-size="11" lengthAdjust="spacingAndGlyphs" textLength="92" x="54.5" y="548.6978">timeout : NoneType</text><text fill="#000000" font-family="sans-serif" font-size="11" lengthAdjust="spacingAndGlyphs" textLength="66" x="54.5" y="563.7207">wbufsize : int</text><text fill="#000000" font-family="sans-serif" font-size="11" lengthAdjust="spacingAndGlyphs" textLength="24" x="54.5" y="578.7437">wfile</text><line style="stroke: #A80036; stroke-width: 1.5;" x1="49.5" x2="210.5" y1="585.1606" y2="585.1606"/><text fill="#000000" font-family="sans-serif" font-size="11" lengthAdjust="spacingAndGlyphs" textLength="34" x="54.5" y="601.7666">finish()</text><text fill="#000000" font-family="sans-serif" font-size="11" lengthAdjust="spacingAndGlyphs" textLength="35" x="54.5" y="616.7896">setup()</text><!--class http.HTTPServer--><rect fill="#FEFECE" filter="url(#f1287w4egjn8j)" height="108.0918" id="http.HTTPServer" style="stroke: #A80036; stroke-width: 1.5;" width="138" x="257" y="956.5"/><ellipse cx="290" cy="972.5" fill="#ADD1B2" rx="11" ry="11" style="stroke: #A80036; stroke-width: 1.0;"/><path d="M288.5781,977.8594 Q286.7188,977.8594 285.625,976.4688 Q284.5313,975.0781 284.5313,972.0938 Q284.5313,969.5625 285.6953,967.9063 Q286.8594,966.25 288.8438,966.25 Q290.3125,966.25 290.7813,966.375 Q291.25,966.5781 291.25,966.5781 Q291.25,966.5781 291.25,966.5078 Q291.25,966.4375 291.8594,965.5156 L292.9063,969.1719 L291.5781,969.5781 Q291.1094,968.0313 290.4453,967.3672 Q289.7813,966.7031 288.7188,966.7031 Q288.3281,966.7031 287.5625,968.2344 Q286.7969,969.7656 286.7969,972.0156 Q286.7969,974.4844 287.4609,975.875 Q288.125,977.2656 288.6563,977.2656 Q289.7188,977.2656 290.4766,976.5 Q291.2344,975.7344 291.5781,974.0781 L292.9063,974.6719 Q292.5781,976.0781 291.6797,976.9688 Q290.7813,977.8594 288.5781,977.8594 Z "/><text fill="#000000" font-family="sans-serif" font-size="12" lengthAdjust="spacingAndGlyphs" textLength="66" x="308" y="978.0576">HTTPServer</text><line style="stroke: #A80036; stroke-width: 1.5;" x1="258" x2="394" y1="988.5" y2="988.5"/><text fill="#000000" font-family="sans-serif" font-size="11" lengthAdjust="spacingAndGlyphs" textLength="126" x="263" y="1005.106">allow_reuse_address : int</text><text fill="#000000" font-family="sans-serif" font-size="11" lengthAdjust="spacingAndGlyphs" textLength="64" x="263" y="1020.1289">server_name</text><text fill="#000000" font-family="sans-serif" font-size="11" lengthAdjust="spacingAndGlyphs" textLength="57" x="263" y="1035.1519">server_port</text><line style="stroke: #A80036; stroke-width: 1.5;" x1="258" x2="394" y1="1041.5688" y2="1041.5688"/><text fill="#000000" font-family="sans-serif" font-size="11" lengthAdjust="spacingAndGlyphs" textLength="66" x="263" y="1058.1748">server_bind()</text><!--class http.BaseHTTPRequestHandler--><rect fill="#FEFECE" filter="url(#f1287w4egjn8j)" height="558.7803" id="http.BaseHTTPRequestHandler" style="stroke: #A80036; stroke-width: 1.5;" width="183" x="38.5" y="731"/><ellipse cx="53.5" cy="747" fill="#ADD1B2" rx="11" ry="11" style="stroke: #A80036; stroke-width: 1.0;"/><path d="M52.0781,752.3594 Q50.2188,752.3594 49.125,750.9688 Q48.0313,749.5781 48.0313,746.5938 Q48.0313,744.0625 49.1953,742.4063 Q50.3594,740.75 52.3438,740.75 Q53.8125,740.75 54.2813,740.875 Q54.75,741.0781 54.75,741.0781 Q54.75,741.0781 54.75,741.0078 Q54.75,740.9375 55.3594,740.0156 L56.4063,743.6719 L55.0781,744.0781 Q54.6094,742.5313 53.9453,741.8672 Q53.2813,741.2031 52.2188,741.2031 Q51.8281,741.2031 51.0625,742.7344 Q50.2969,744.2656 50.2969,746.5156 Q50.2969,748.9844 50.9609,750.375 Q51.625,751.7656 52.1563,751.7656 Q53.2188,751.7656 53.9766,751 Q54.7344,750.2344 55.0781,748.5781 L56.4063,749.1719 Q56.0781,750.5781 55.1797,751.4688 Q54.2813,752.3594 52.0781,752.3594 Z "/><text fill="#000000" font-family="sans-serif" font-size="12" lengthAdjust="spacingAndGlyphs" textLength="151" x="67.5" y="752.5576">BaseHTTPRequestHandler</text><line style="stroke: #A80036; stroke-width: 1.5;" x1="39.5" x2="220.5" y1="763" y2="763"/><text fill="#000000" font-family="sans-serif" font-size="11" lengthAdjust="spacingAndGlyphs" textLength="149" x="44.5" y="779.606">MessageClass : HTTPMessage</text><text fill="#000000" font-family="sans-serif" font-size="11" lengthAdjust="spacingAndGlyphs" textLength="114" x="44.5" y="794.6289">close_connection : bool</text><text fill="#000000" font-family="sans-serif" font-size="11" lengthAdjust="spacingAndGlyphs" textLength="123" x="44.5" y="809.6519">command : str, NoneType</text><text fill="#000000" font-family="sans-serif" font-size="11" lengthAdjust="spacingAndGlyphs" textLength="140" x="44.5" y="824.6748">default_request_version : str</text><text fill="#000000" font-family="sans-serif" font-size="11" lengthAdjust="spacingAndGlyphs" textLength="115" x="44.5" y="839.6978">error_content_type : str</text><text fill="#000000" font-family="sans-serif" font-size="11" lengthAdjust="spacingAndGlyphs" textLength="133" x="44.5" y="854.7207">error_message_format : str</text><text fill="#000000" font-family="sans-serif" font-size="11" lengthAdjust="spacingAndGlyphs" textLength="40" x="44.5" y="869.7437">headers</text><text fill="#000000" font-family="sans-serif" font-size="11" lengthAdjust="spacingAndGlyphs" textLength="77" x="44.5" y="884.7666">monthname : list</text><text fill="#000000" font-family="sans-serif" font-size="11" lengthAdjust="spacingAndGlyphs" textLength="21" x="44.5" y="899.7896">path</text><text fill="#000000" font-family="sans-serif" font-size="11" lengthAdjust="spacingAndGlyphs" textLength="103" x="44.5" y="914.8125">protocol_version : str</text><text fill="#000000" font-family="sans-serif" font-size="11" lengthAdjust="spacingAndGlyphs" textLength="79" x="44.5" y="929.8354">raw_requestline</text><text fill="#000000" font-family="sans-serif" font-size="11" lengthAdjust="spacingAndGlyphs" textLength="101" x="44.5" y="944.8584">request_version : str</text><text fill="#000000" font-family="sans-serif" font-size="11" lengthAdjust="spacingAndGlyphs" textLength="75" x="44.5" y="959.8813">requestline : str</text><text fill="#000000" font-family="sans-serif" font-size="11" lengthAdjust="spacingAndGlyphs" textLength="52" x="44.5" y="974.9043">responses</text><text fill="#000000" font-family="sans-serif" font-size="11" lengthAdjust="spacingAndGlyphs" textLength="96" x="44.5" y="989.9272">server_version : str</text><text fill="#000000" font-family="sans-serif" font-size="11" lengthAdjust="spacingAndGlyphs" textLength="60" x="44.5" y="1004.9502">sys_version</text><text fill="#000000" font-family="sans-serif" font-size="11" lengthAdjust="spacingAndGlyphs" textLength="93" x="44.5" y="1019.9731">weekdayname : list</text><line style="stroke: #A80036; stroke-width: 1.5;" x1="39.5" x2="220.5" y1="1026.3901" y2="1026.3901"/><text fill="#000000" font-family="sans-serif" font-size="11" lengthAdjust="spacingAndGlyphs" textLength="81" x="44.5" y="1042.9961">address_string()</text><text fill="#000000" font-family="sans-serif" font-size="11" lengthAdjust="spacingAndGlyphs" textLength="87" x="44.5" y="1058.019">date_time_string()</text><text fill="#000000" font-family="sans-serif" font-size="11" lengthAdjust="spacingAndGlyphs" textLength="72" x="44.5" y="1073.042">end_headers()</text><text fill="#000000" font-family="sans-serif" font-size="11" lengthAdjust="spacingAndGlyphs" textLength="78" x="44.5" y="1088.0649">flush_headers()</text><text fill="#000000" font-family="sans-serif" font-size="11" lengthAdjust="spacingAndGlyphs" textLength="40" x="44.5" y="1103.0879">handle()</text><text fill="#000000" font-family="sans-serif" font-size="11" lengthAdjust="spacingAndGlyphs" textLength="103" x="44.5" y="1118.1108">handle_expect_100()</text><text fill="#000000" font-family="sans-serif" font-size="11" lengthAdjust="spacingAndGlyphs" textLength="107" x="44.5" y="1133.1338">handle_one_request()</text><text fill="#000000" font-family="sans-serif" font-size="11" lengthAdjust="spacingAndGlyphs" textLength="107" x="44.5" y="1148.1567">log_date_time_string()</text><text fill="#000000" font-family="sans-serif" font-size="11" lengthAdjust="spacingAndGlyphs" textLength="52" x="44.5" y="1163.1797">log_error()</text><text fill="#000000" font-family="sans-serif" font-size="11" lengthAdjust="spacingAndGlyphs" textLength="72" x="44.5" y="1178.2026">log_message()</text><text fill="#000000" font-family="sans-serif" font-size="11" lengthAdjust="spacingAndGlyphs" textLength="65" x="44.5" y="1193.2256">log_request()</text><text fill="#000000" font-family="sans-serif" font-size="11" lengthAdjust="spacingAndGlyphs" textLength="79" x="44.5" y="1208.2485">parse_request()</text><text fill="#000000" font-family="sans-serif" font-size="11" lengthAdjust="spacingAndGlyphs" textLength="62" x="44.5" y="1223.2715">send_error()</text><text fill="#000000" font-family="sans-serif" font-size="11" lengthAdjust="spacingAndGlyphs" textLength="72" x="44.5" y="1238.2944">send_header()</text><text fill="#000000" font-family="sans-serif" font-size="11" lengthAdjust="spacingAndGlyphs" textLength="84" x="44.5" y="1253.3174">send_response()</text><text fill="#000000" font-family="sans-serif" font-size="11" lengthAdjust="spacingAndGlyphs" textLength="110" x="44.5" y="1268.3403">send_response_only()</text><text fill="#000000" font-family="sans-serif" font-size="11" lengthAdjust="spacingAndGlyphs" textLength="77" x="44.5" y="1283.3633">version_string()</text><!--class werkzeug.BaseWSGIServer--><rect fill="#FEFECE" filter="url(#f1287w4egjn8j)" height="288.3672" id="werkzeug.BaseWSGIServer" style="stroke: #A80036; stroke-width: 1.5;" width="138" x="249" y="1398"/><ellipse cx="268.95" cy="1414" fill="#ADD1B2" rx="11" ry="11" style="stroke: #A80036; stroke-width: 1.0;"/><path d="M267.5281,1419.3594 Q265.6688,1419.3594 264.575,1417.9688 Q263.4813,1416.5781 263.4813,1413.5938 Q263.4813,1411.0625 264.6453,1409.4063 Q265.8094,1407.75 267.7938,1407.75 Q269.2625,1407.75 269.7313,1407.875 Q270.2,1408.0781 270.2,1408.0781 Q270.2,1408.0781 270.2,1408.0078 Q270.2,1407.9375 270.8094,1407.0156 L271.8563,1410.6719 L270.5281,1411.0781 Q270.0594,1409.5313 269.3953,1408.8672 Q268.7313,1408.2031 267.6688,1408.2031 Q267.2781,1408.2031 266.5125,1409.7344 Q265.7469,1411.2656 265.7469,1413.5156 Q265.7469,1415.9844 266.4109,1417.375 Q267.075,1418.7656 267.6063,1418.7656 Q268.6688,1418.7656 269.4266,1418 Q270.1844,1417.2344 270.5281,1415.5781 L271.8563,1416.1719 Q271.5281,1417.5781 270.6297,1418.4688 Q269.7313,1419.3594 267.5281,1419.3594 Z "/><text fill="#000000" font-family="sans-serif" font-size="12" lengthAdjust="spacingAndGlyphs" textLength="95" x="284.05" y="1419.5576">BaseWSGIServer</text><line style="stroke: #A80036; stroke-width: 1.5;" x1="250" x2="386" y1="1430" y2="1430"/><text fill="#000000" font-family="sans-serif" font-size="11" lengthAdjust="spacingAndGlyphs" textLength="94" x="255" y="1446.606">address_family : int</text><text fill="#000000" font-family="sans-serif" font-size="11" lengthAdjust="spacingAndGlyphs" textLength="18" x="255" y="1461.6289">app</text><text fill="#000000" font-family="sans-serif" font-size="11" lengthAdjust="spacingAndGlyphs" textLength="21" x="255" y="1476.6519">host</text><text fill="#000000" font-family="sans-serif" font-size="11" lengthAdjust="spacingAndGlyphs" textLength="90" x="255" y="1491.6748">multiprocess : bool</text><text fill="#000000" font-family="sans-serif" font-size="11" lengthAdjust="spacingAndGlyphs" textLength="81" x="255" y="1506.6978">multithread : bool</text><text fill="#000000" font-family="sans-serif" font-size="11" lengthAdjust="spacingAndGlyphs" textLength="126" x="255" y="1521.7207">passthrough_errors : bool</text><text fill="#000000" font-family="sans-serif" font-size="11" lengthAdjust="spacingAndGlyphs" textLength="19" x="255" y="1536.7437">port</text><text fill="#000000" font-family="sans-serif" font-size="11" lengthAdjust="spacingAndGlyphs" textLength="119" x="255" y="1551.7666">request_queue_size : int</text><text fill="#000000" font-family="sans-serif" font-size="11" lengthAdjust="spacingAndGlyphs" textLength="78" x="255" y="1566.7896">server_address</text><text fill="#000000" font-family="sans-serif" font-size="11" lengthAdjust="spacingAndGlyphs" textLength="112" x="255" y="1581.8125">shutdown_signal : bool</text><text fill="#000000" font-family="sans-serif" font-size="11" lengthAdjust="spacingAndGlyphs" textLength="73" x="255" y="1596.8354">socket : socket</text><text fill="#000000" font-family="sans-serif" font-size="11" lengthAdjust="spacingAndGlyphs" textLength="114" x="255" y="1611.8584">ssl_context : NoneType</text><line style="stroke: #A80036; stroke-width: 1.5;" x1="250" x2="386" y1="1618.2754" y2="1618.2754"/><text fill="#000000" font-family="sans-serif" font-size="11" lengthAdjust="spacingAndGlyphs" textLength="66" x="255" y="1634.8813">get_request()</text><text fill="#000000" font-family="sans-serif" font-size="11" lengthAdjust="spacingAndGlyphs" textLength="70" x="255" y="1649.9043">handle_error()</text><text fill="#000000" font-family="sans-serif" font-size="11" lengthAdjust="spacingAndGlyphs" textLength="22" x="255" y="1664.9272">log()</text><text fill="#000000" font-family="sans-serif" font-size="11" lengthAdjust="spacingAndGlyphs" textLength="78" x="255" y="1679.9502">serve_forever()</text><!--class werkzeug.WSGIRequestHandler--><rect fill="#FEFECE" filter="url(#f1287w4egjn8j)" height="348.459" id="werkzeug.WSGIRequestHandler" style="stroke: #A80036; stroke-width: 1.5;" width="154" x="60" y="1368"/><ellipse cx="75" cy="1384" fill="#ADD1B2" rx="11" ry="11" style="stroke: #A80036; stroke-width: 1.0;"/><path d="M73.5781,1389.3594 Q71.7188,1389.3594 70.625,1387.9688 Q69.5313,1386.5781 69.5313,1383.5938 Q69.5313,1381.0625 70.6953,1379.4063 Q71.8594,1377.75 73.8438,1377.75 Q75.3125,1377.75 75.7813,1377.875 Q76.25,1378.0781 76.25,1378.0781 Q76.25,1378.0781 76.25,1378.0078 Q76.25,1377.9375 76.8594,1377.0156 L77.9063,1380.6719 L76.5781,1381.0781 Q76.1094,1379.5313 75.4453,1378.8672 Q74.7813,1378.2031 73.7188,1378.2031 Q73.3281,1378.2031 72.5625,1379.7344 Q71.7969,1381.2656 71.7969,1383.5156 Q71.7969,1385.9844 72.4609,1387.375 Q73.125,1388.7656 73.6563,1388.7656 Q74.7188,1388.7656 75.4766,1388 Q76.2344,1387.2344 76.5781,1385.5781 L77.9063,1386.1719 Q77.5781,1387.5781 76.6797,1388.4688 Q75.7813,1389.3594 73.5781,1389.3594 Z "/><text fill="#000000" font-family="sans-serif" font-size="12" lengthAdjust="spacingAndGlyphs" textLength="122" x="89" y="1389.5576">WSGIRequestHandler</text><line style="stroke: #A80036; stroke-width: 1.5;" x1="61" x2="213" y1="1400" y2="1400"/><text fill="#000000" font-family="sans-serif" font-size="11" lengthAdjust="spacingAndGlyphs" textLength="122" x="66" y="1416.606">client_address : tuple, str</text><text fill="#000000" font-family="sans-serif" font-size="11" lengthAdjust="spacingAndGlyphs" textLength="131" x="66" y="1431.6289">close_connection : bool, int</text><text fill="#000000" font-family="sans-serif" font-size="11" lengthAdjust="spacingAndGlyphs" textLength="62" x="66" y="1446.6519">environ : dict</text><text fill="#000000" font-family="sans-serif" font-size="11" lengthAdjust="spacingAndGlyphs" textLength="79" x="66" y="1461.6748">raw_requestline</text><text fill="#000000" font-family="sans-serif" font-size="11" lengthAdjust="spacingAndGlyphs" textLength="74" x="66" y="1476.6978">server_version</text><line style="stroke: #A80036; stroke-width: 1.5;" x1="61" x2="213" y1="1483.1147" y2="1483.1147"/><text fill="#000000" font-family="sans-serif" font-size="11" lengthAdjust="spacingAndGlyphs" textLength="81" x="66" y="1499.7207">address_string()</text><text fill="#000000" font-family="sans-serif" font-size="11" lengthAdjust="spacingAndGlyphs" textLength="107" x="66" y="1514.7437">connection_dropped()</text><text fill="#000000" font-family="sans-serif" font-size="11" lengthAdjust="spacingAndGlyphs" textLength="94" x="66" y="1529.7666">get_header_items()</text><text fill="#000000" font-family="sans-serif" font-size="11" lengthAdjust="spacingAndGlyphs" textLength="40" x="66" y="1544.7896">handle()</text><text fill="#000000" font-family="sans-serif" font-size="11" lengthAdjust="spacingAndGlyphs" textLength="107" x="66" y="1559.8125">handle_one_request()</text><text fill="#000000" font-family="sans-serif" font-size="11" lengthAdjust="spacingAndGlyphs" textLength="93" x="66" y="1574.8354">initiate_shutdown()</text><text fill="#000000" font-family="sans-serif" font-size="11" lengthAdjust="spacingAndGlyphs" textLength="22" x="66" y="1589.8584">log()</text><text fill="#000000" font-family="sans-serif" font-size="11" lengthAdjust="spacingAndGlyphs" textLength="52" x="66" y="1604.8813">log_error()</text><text fill="#000000" font-family="sans-serif" font-size="11" lengthAdjust="spacingAndGlyphs" textLength="72" x="66" y="1619.9043">log_message()</text><text fill="#000000" font-family="sans-serif" font-size="11" lengthAdjust="spacingAndGlyphs" textLength="65" x="66" y="1634.9272">log_request()</text><text fill="#000000" font-family="sans-serif" font-size="11" lengthAdjust="spacingAndGlyphs" textLength="75" x="66" y="1649.9502">make_environ()</text><text fill="#000000" font-family="sans-serif" font-size="11" lengthAdjust="spacingAndGlyphs" textLength="66" x="66" y="1664.9731">port_integer()</text><text fill="#000000" font-family="sans-serif" font-size="11" lengthAdjust="spacingAndGlyphs" textLength="54" x="66" y="1679.9961">run_wsgi()</text><text fill="#000000" font-family="sans-serif" font-size="11" lengthAdjust="spacingAndGlyphs" textLength="84" x="66" y="1695.019">send_response()</text><text fill="#000000" font-family="sans-serif" font-size="11" lengthAdjust="spacingAndGlyphs" textLength="77" x="66" y="1710.042">version_string()</text><!--link socketserver.BaseServer to socketserver.TCPServer--><path d="M320,370.31 C320,383.52 320,396.71 320,409.54 " fill="none" id="socketserver.BaseServer-socketserver.TCPServer" style="stroke: #A80036; stroke-width: 1.0;"/><polygon fill="none" points="313,370.3,320,350.3,327,370.3,313,370.3" style="stroke: #A80036; stroke-width: 1.0;"/><!--link socketserver.TCPServer to http.HTTPServer--><path d="M321.772,673.35 C322.967,768.353 324.476,888.346 325.33,956.249 " fill="none" id="socketserver.TCPServer-http.HTTPServer" style="stroke: #A80036; stroke-width: 1.0;"/><polygon fill="none" points="314.77,673.26,321.518,653.18,328.769,673.09,314.77,673.26" style="stroke: #A80036; stroke-width: 1.0;"/><!--link http.HTTPServer to werkzeug.BaseWSGIServer--><path d="M324.893,1084.774 C323.675,1165.356 321.689,1296.821 320.161,1397.979 " fill="none" id="http.HTTPServer-werkzeug.BaseWSGIServer" style="stroke: #A80036; stroke-width: 1.0;"/><polygon fill="none" points="317.895,1084.587,325.196,1064.695,331.893,1084.798,317.895,1084.587" style="stroke: #A80036; stroke-width: 1.0;"/><!--link socketserver.BaseRequestHandler to socketserver.StreamRequestHandler--><path d="M130,295.42 C130,340.32 130,394.78 130,439.97 " fill="none" id="socketserver.BaseRequestHandler-socketserver.StreamRequestHandler" style="stroke: #A80036; stroke-width: 1.0;"/><polygon fill="none" points="123,295.21,130,275.21,137,295.21,123,295.21" style="stroke: #A80036; stroke-width: 1.0;"/><!--link socketserver.StreamRequestHandler to http.BaseHTTPRequestHandler--><path d="M130,643.4 C130,670.2 130,700.05 130,730.83 " fill="none" id="socketserver.StreamRequestHandler-http.BaseHTTPRequestHandler" style="stroke: #A80036; stroke-width: 1.0;"/><polygon fill="none" points="123,643.06,130,623.06,137,643.06,123,643.06" style="stroke: #A80036; stroke-width: 1.0;"/><!--link http.BaseHTTPRequestHandler to werkzeug.WSGIRequestHandler--><path d="M133.95,1310.269 C134.209,1329.852 134.464,1349.183 134.711,1367.822 " fill="none" id="http.BaseHTTPRequestHandler-werkzeug.WSGIRequestHandler" style="stroke: #A80036; stroke-width: 1.0;"/><polygon fill="none" points="126.95,1310.296,133.684,1290.206,140.948,1310.111,126.95,1310.296" style="stroke: #A80036; stroke-width: 1.0;"/><!--
@startuml classes
socketserver.BaseServer <|- - socketserver.TCPServer
socketserver.TCPServer <|- - http.HTTPServer
http.HTTPServer <|- - werkzeug.BaseWSGIServer

socketserver.BaseRequestHandler <|- - socketserver.StreamRequestHandler
socketserver.StreamRequestHandler <|- - http.BaseHTTPRequestHandler
http.BaseHTTPRequestHandler <|- - werkzeug.WSGIRequestHandler

class socketserver.BaseServer {
    RequestHandlerClass
    server_address
    timeout : NoneType
    close_request()
    finish_request()
    handle_error()
    handle_request()
    handle_timeout()
    process_request()
    serve_forever()
    server_activate()
    server_close()
    service_actions()
    shutdown()
    shutdown_request()
    verify_request()
}
class socketserver.TCPServer {
    address_family : int
    allow_reuse_address : bool
    request_queue_size : int
    server_address
    socket : socket
    socket_type : int
    close_request()
    fileno()
    get_request()
    server_activate()
    server_bind()
    server_close()
    shutdown_request()
}
class socketserver.BaseRequestHandler {
    client_address
    request
    server
    finish()
    handle()
    setup()
}
class socketserver.StreamRequestHandler {
    connection
    disable_nagle_algorithm : bool
    rbufsize : int
    rfile
    timeout : NoneType
    wbufsize : int
    wfile
    finish()
    setup()
}
class http.HTTPServer {
    allow_reuse_address : int
    server_name
    server_port
    server_bind()
}
class http.BaseHTTPRequestHandler {
    MessageClass : HTTPMessage
    close_connection : bool
    command : str, NoneType
    default_request_version : str
    error_content_type : str
    error_message_format : str
    headers
    monthname : list
    path
    protocol_version : str
    raw_requestline
    request_version : str
    requestline : str
    responses
    server_version : str
    sys_version
    weekdayname : list
    address_string()
    date_time_string()
    end_headers()
    flush_headers()
    handle()
    handle_expect_100()
    handle_one_request()
    log_date_time_string()
    log_error()
    log_message()
    log_request()
    parse_request()
    send_error()
    send_header()
    send_response()
    send_response_only()
    version_string()
}
class werkzeug.BaseWSGIServer {
    address_family : int
    app
    host
    multiprocess : bool
    multithread : bool
    passthrough_errors : bool
    port
    request_queue_size : int
    server_address
    shutdown_signal : bool
    socket : socket
    ssl_context : NoneType
    get_request()
    handle_error()
    log()
    serve_forever()
}
class werkzeug.WSGIRequestHandler {
    client_address : tuple, str
    close_connection : bool, int
    environ : dict
    raw_requestline
    server_version
    address_string()
    connection_dropped()
    get_header_items()
    handle()
    handle_one_request()
    initiate_shutdown()
    log()
    log_error()
    log_message()
    log_request()
    make_environ()
    port_integer()
    run_wsgi()
    send_response()
    version_string()
}
@enduml

PlantUML version 1.2018.12(Sun Oct 21 18:15:15 CST 2018)
(GPL source distribution)
Java Runtime: Java(TM) SE Runtime Environment
JVM: Java HotSpot(TM) 64-Bit Server VM
Java Version: 1.8.0_192-b12
Operating System: Windows 10
OS Version: 10.0
Default Encoding: GBK
Language: zh
Country: CN
--></g></svg>