<?xml version="1.0" encoding="UTF-8" standalone="no"?><svg xmlns="http://www.w3.org/2000/svg" xmlns:xlink="http://www.w3.org/1999/xlink" contentScriptType="application/ecmascript" contentStyleType="text/css" height="1773px" preserveAspectRatio="none" style="width:2137px;height:1773px;" version="1.1" viewBox="0 0 2137 1773" width="2137px" zoomAndPan="magnify"><defs><filter height="300%" id="fdu2jfxteiicl" width="300%" x="-1" y="-1"><feGaussianBlur result="blurOut" stdDeviation="2.0"/><feColorMatrix in="blurOut" result="blurOut2" type="matrix" values="0 0 0 0 0 0 0 0 0 0 0 0 0 0 0 0 0 0 .4 0"/><feOffset dx="4.0" dy="4.0" in="blurOut2" result="blurOut3"/><feBlend in="SourceGraphic" in2="blurOut3" mode="normal"/></filter></defs><g><line style="stroke: #A80036; stroke-width: 1.0; stroke-dasharray: 5.0,5.0;" x1="47" x2="47" y1="41.1201" y2="1730.5591"/><line style="stroke: #A80036; stroke-width: 1.0; stroke-dasharray: 5.0,5.0;" x1="123" x2="123" y1="41.1201" y2="1730.5591"/><line style="stroke: #A80036; stroke-width: 1.0; stroke-dasharray: 5.0,5.0;" x1="269" x2="269" y1="41.1201" y2="1730.5591"/><line style="stroke: #A80036; stroke-width: 1.0; stroke-dasharray: 5.0,5.0;" x1="413" x2="413" y1="41.1201" y2="1730.5591"/><line style="stroke: #A80036; stroke-width: 1.0; stroke-dasharray: 5.0,5.0;" x1="581" x2="581" y1="41.1201" y2="1730.5591"/><line style="stroke: #A80036; stroke-width: 1.0; stroke-dasharray: 5.0,5.0;" x1="739" x2="739" y1="41.1201" y2="1730.5591"/><line style="stroke: #A80036; stroke-width: 1.0; stroke-dasharray: 5.0,5.0;" x1="924" x2="924" y1="41.1201" y2="1730.5591"/><line style="stroke: #A80036; stroke-width: 1.0; stroke-dasharray: 5.0,5.0;" x1="1132" x2="1132" y1="41.1201" y2="1730.5591"/><line style="stroke: #A80036; stroke-width: 1.0; stroke-dasharray: 5.0,5.0;" x1="1360" x2="1360" y1="41.1201" y2="1730.5591"/><line style="stroke: #A80036; stroke-width: 1.0; stroke-dasharray: 5.0,5.0;" x1="1603" x2="1603" y1="41.1201" y2="1730.5591"/><line style="stroke: #A80036; stroke-width: 1.0; stroke-dasharray: 5.0,5.0;" x1="1856" x2="1856" y1="41.1201" y2="1730.5591"/><line style="stroke: #A80036; stroke-width: 1.0; stroke-dasharray: 5.0,5.0;" x1="2057" x2="2057" y1="41.1201" y2="1730.5591"/><rect fill="#FEFECE" filter="url(#fdu2jfxteiicl)" height="33.1201" style="stroke: #A80036; stroke-width: 1.5;" width="44" x="23" y="3"/><text fill="#000000" font-family="sans-serif" font-size="14" lengthAdjust="spacingAndGlyphs" textLength="30" x="30" y="26.0439">main</text><rect fill="#FEFECE" filter="url(#fdu2jfxteiicl)" height="33.1201" style="stroke: #A80036; stroke-width: 1.5;" width="44" x="23" y="1729.5591"/><text fill="#000000" font-family="sans-serif" font-size="14" lengthAdjust="spacingAndGlyphs" textLength="30" x="30" y="1752.603">main</text><rect fill="#FEFECE" filter="url(#fdu2jfxteiicl)" height="33.1201" style="stroke: #A80036; stroke-width: 1.5;" width="81" x="81" y="3"/><text fill="#000000" font-family="sans-serif" font-size="14" lengthAdjust="spacingAndGlyphs" textLength="67" x="88" y="26.0439">flask.Flask</text><rect fill="#FEFECE" filter="url(#fdu2jfxteiicl)" height="33.1201" style="stroke: #A80036; stroke-width: 1.5;" width="81" x="81" y="1729.5591"/><text fill="#000000" font-family="sans-serif" font-size="14" lengthAdjust="spacingAndGlyphs" textLength="67" x="88" y="1752.603">flask.Flask</text><rect fill="#FEFECE" filter="url(#fdu2jfxteiicl)" height="33.1201" style="stroke: #A80036; stroke-width: 1.5;" width="73" x="231" y="3"/><text fill="#000000" font-family="sans-serif" font-size="14" lengthAdjust="spacingAndGlyphs" textLength="59" x="238" y="26.0439">werkzeug</text><rect fill="#FEFECE" filter="url(#fdu2jfxteiicl)" height="33.1201" style="stroke: #A80036; stroke-width: 1.5;" width="73" x="231" y="1729.5591"/><text fill="#000000" font-family="sans-serif" font-size="14" lengthAdjust="spacingAndGlyphs" textLength="59" x="238" y="1752.603">werkzeug</text><rect fill="#FEFECE" filter="url(#fdu2jfxteiicl)" height="33.1201" style="stroke: #A80036; stroke-width: 1.5;" width="187" x="318" y="3"/><text fill="#000000" font-family="sans-serif" font-size="14" lengthAdjust="spacingAndGlyphs" textLength="173" x="325" y="26.0439">werkzeug.BaseWSGIServer</text><rect fill="#FEFECE" filter="url(#fdu2jfxteiicl)" height="33.1201" style="stroke: #A80036; stroke-width: 1.5;" width="187" x="318" y="1729.5591"/><text fill="#000000" font-family="sans-serif" font-size="14" lengthAdjust="spacingAndGlyphs" textLength="173" x="325" y="1752.603">werkzeug.BaseWSGIServer</text><rect fill="#FEFECE" filter="url(#fdu2jfxteiicl)" height="33.1201" style="stroke: #A80036; stroke-width: 1.5;" width="120" x="519" y="3"/><text fill="#000000" font-family="sans-serif" font-size="14" lengthAdjust="spacingAndGlyphs" textLength="106" x="526" y="26.0439">http.HTTPServer</text><rect fill="#FEFECE" filter="url(#fdu2jfxteiicl)" height="33.1201" style="stroke: #A80036; stroke-width: 1.5;" width="120" x="519" y="1729.5591"/><text fill="#000000" font-family="sans-serif" font-size="14" lengthAdjust="spacingAndGlyphs" textLength="106" x="526" y="1752.603">http.HTTPServer</text><rect fill="#FEFECE" filter="url(#fdu2jfxteiicl)" height="33.1201" style="stroke: #A80036; stroke-width: 1.5;" width="169" x="653" y="3"/><text fill="#000000" font-family="sans-serif" font-size="14" lengthAdjust="spacingAndGlyphs" textLength="155" x="660" y="26.0439">socketserver.TCPServer</text><rect fill="#FEFECE" filter="url(#fdu2jfxteiicl)" height="33.1201" style="stroke: #A80036; stroke-width: 1.5;" width="169" x="653" y="1729.5591"/><text fill="#000000" font-family="sans-serif" font-size="14" lengthAdjust="spacingAndGlyphs" textLength="155" x="660" y="1752.603">socketserver.TCPServer</text><rect fill="#FEFECE" filter="url(#fdu2jfxteiicl)" height="33.1201" style="stroke: #A80036; stroke-width: 1.5;" width="173" x="836" y="3"/><text fill="#000000" font-family="sans-serif" font-size="14" lengthAdjust="spacingAndGlyphs" textLength="159" x="843" y="26.0439">socketserver.BaseServer</text><rect fill="#FEFECE" filter="url(#fdu2jfxteiicl)" height="33.1201" style="stroke: #A80036; stroke-width: 1.5;" width="173" x="836" y="1729.5591"/><text fill="#000000" font-family="sans-serif" font-size="14" lengthAdjust="spacingAndGlyphs" textLength="159" x="843" y="1752.603">socketserver.BaseServer</text><rect fill="#FEFECE" filter="url(#fdu2jfxteiicl)" height="33.1201" style="stroke: #A80036; stroke-width: 1.5;" width="215" x="1023" y="3"/><text fill="#000000" font-family="sans-serif" font-size="14" lengthAdjust="spacingAndGlyphs" textLength="201" x="1030" y="26.0439">werkzeug.WSGIRequestHandler</text><rect fill="#FEFECE" filter="url(#fdu2jfxteiicl)" height="33.1201" style="stroke: #A80036; stroke-width: 1.5;" width="215" x="1023" y="1729.5591"/><text fill="#000000" font-family="sans-serif" font-size="14" lengthAdjust="spacingAndGlyphs" textLength="201" x="1030" y="1752.603">werkzeug.WSGIRequestHandler</text><rect fill="#FEFECE" filter="url(#fdu2jfxteiicl)" height="33.1201" style="stroke: #A80036; stroke-width: 1.5;" width="212" x="1252" y="3"/><text fill="#000000" font-family="sans-serif" font-size="14" lengthAdjust="spacingAndGlyphs" textLength="198" x="1259" y="26.0439">http.BaseHTTPRequestHandler</text><rect fill="#FEFECE" filter="url(#fdu2jfxteiicl)" height="33.1201" style="stroke: #A80036; stroke-width: 1.5;" width="212" x="1252" y="1729.5591"/><text fill="#000000" font-family="sans-serif" font-size="14" lengthAdjust="spacingAndGlyphs" textLength="198" x="1259" y="1752.603">http.BaseHTTPRequestHandler</text><rect fill="#FEFECE" filter="url(#fdu2jfxteiicl)" height="33.1201" style="stroke: #A80036; stroke-width: 1.5;" width="246" x="1478" y="3"/><text fill="#000000" font-family="sans-serif" font-size="14" lengthAdjust="spacingAndGlyphs" textLength="232" x="1485" y="26.0439">socketserver.StreamRequestHandler</text><rect fill="#FEFECE" filter="url(#fdu2jfxteiicl)" height="33.1201" style="stroke: #A80036; stroke-width: 1.5;" width="246" x="1478" y="1729.5591"/><text fill="#000000" font-family="sans-serif" font-size="14" lengthAdjust="spacingAndGlyphs" textLength="232" x="1485" y="1752.603">socketserver.StreamRequestHandler</text><rect fill="#FEFECE" filter="url(#fdu2jfxteiicl)" height="33.1201" style="stroke: #A80036; stroke-width: 1.5;" width="233" x="1738" y="3"/><text fill="#000000" font-family="sans-serif" font-size="14" lengthAdjust="spacingAndGlyphs" textLength="219" x="1745" y="26.0439">socketserver.BaseRequestHandler</text><rect fill="#FEFECE" filter="url(#fdu2jfxteiicl)" height="33.1201" style="stroke: #A80036; stroke-width: 1.5;" width="233" x="1738" y="1729.5591"/><text fill="#000000" font-family="sans-serif" font-size="14" lengthAdjust="spacingAndGlyphs" textLength="219" x="1745" y="1752.603">socketserver.BaseRequestHandler</text><rect fill="#FEFECE" filter="url(#fdu2jfxteiicl)" height="33.1201" style="stroke: #A80036; stroke-width: 1.5;" width="141" x="1985" y="3"/><text fill="#000000" font-family="sans-serif" font-size="14" lengthAdjust="spacingAndGlyphs" textLength="127" x="1992" y="26.0439">werkzeug.Response</text><rect fill="#FEFECE" filter="url(#fdu2jfxteiicl)" height="33.1201" style="stroke: #A80036; stroke-width: 1.5;" width="141" x="1985" y="1729.5591"/><text fill="#000000" font-family="sans-serif" font-size="14" lengthAdjust="spacingAndGlyphs" textLength="127" x="1992" y="1752.603">werkzeug.Response</text><polygon fill="#A80036" points="111.5,70.8745,121.5,74.8745,111.5,78.8745,115.5,74.8745" style="stroke: #A80036; stroke-width: 1.0;"/><line style="stroke: #A80036; stroke-width: 1.0;" x1="47" x2="117.5" y1="74.8745" y2="74.8745"/><text fill="#000000" font-family="sans-serif" font-size="13" font-weight="bold" lengthAdjust="spacingAndGlyphs" textLength="7" x="54" y="70.0181">1</text><text fill="#000000" font-family="sans-serif" font-size="13" lengthAdjust="spacingAndGlyphs" textLength="18" x="65" y="70.0181">run</text><polygon fill="#A80036" points="257.5,107.6289,267.5,111.6289,257.5,115.6289,261.5,111.6289" style="stroke: #A80036; stroke-width: 1.0;"/><line style="stroke: #A80036; stroke-width: 1.0;" x1="123.5" x2="263.5" y1="111.6289" y2="111.6289"/><text fill="#000000" font-family="sans-serif" font-size="13" font-weight="bold" lengthAdjust="spacingAndGlyphs" textLength="7" x="130.5" y="106.7725">2</text><text fill="#000000" font-family="sans-serif" font-size="13" lengthAdjust="spacingAndGlyphs" textLength="63" x="141.5" y="106.7725">run_simple</text><path d="M8,87.8745 L8,114.8745 L115,114.8745 L115,97.8745 L105,87.8745 L8,87.8745 " fill="#FBFB77" filter="url(#fdu2jfxteiicl)" style="stroke: #A80036; stroke-width: 1.0;"/><path d="M105,87.8745 L105,97.8745 L115,97.8745 L105,87.8745 " fill="#FBFB77" style="stroke: #A80036; stroke-width: 1.0;"/><text fill="#000000" font-family="sans-serif" font-size="13" lengthAdjust="spacingAndGlyphs" textLength="86" x="14" y="107.7725">application:self</text><line style="stroke: #A80036; stroke-width: 1.0;" x1="269.5" x2="311.5" y1="148.3833" y2="148.3833"/><line style="stroke: #A80036; stroke-width: 1.0;" x1="311.5" x2="311.5" y1="148.3833" y2="161.3833"/><line style="stroke: #A80036; stroke-width: 1.0;" x1="270.5" x2="311.5" y1="161.3833" y2="161.3833"/><polygon fill="#A80036" points="280.5,157.3833,270.5,161.3833,280.5,165.3833,276.5,161.3833" style="stroke: #A80036; stroke-width: 1.0;"/><text fill="#000000" font-family="sans-serif" font-size="13" font-weight="bold" lengthAdjust="spacingAndGlyphs" textLength="7" x="276.5" y="143.5269">3</text><text fill="#000000" font-family="sans-serif" font-size="13" lengthAdjust="spacingAndGlyphs" textLength="73" x="287.5" y="143.5269">make_server</text><polygon fill="#A80036" points="401.5,194.1377,411.5,198.1377,401.5,202.1377,405.5,198.1377" style="stroke: #A80036; stroke-width: 1.0;"/><line style="stroke: #A80036; stroke-width: 1.0;" x1="269.5" x2="407.5" y1="198.1377" y2="198.1377"/><text fill="#000000" font-family="sans-serif" font-size="13" font-weight="bold" lengthAdjust="spacingAndGlyphs" textLength="7" x="276.5" y="193.2813">4</text><text fill="#000000" font-family="sans-serif" font-size="13" lengthAdjust="spacingAndGlyphs" text-decoration="underline" textLength="17" x="287.5" y="193.2813">init</text><line style="stroke: #000000; stroke-width: 1.0;" x1="287.5" x2="304.5" y1="195.2813" y2="195.2813"/><path d="M418,174.3833 L418,201.3833 L612,201.3833 L612,184.3833 L602,174.3833 L418,174.3833 " fill="#FBFB77" filter="url(#fdu2jfxteiicl)" style="stroke: #A80036; stroke-width: 1.0;"/><path d="M602,174.3833 L602,184.3833 L612,184.3833 L602,174.3833 " fill="#FBFB77" style="stroke: #A80036; stroke-width: 1.0;"/><text fill="#000000" font-family="sans-serif" font-size="13" lengthAdjust="spacingAndGlyphs" textLength="173" x="424" y="194.2813">handler:WSGIRequestHandler</text><polygon fill="#A80036" points="569,230.8921,579,234.8921,569,238.8921,573,234.8921" style="stroke: #A80036; stroke-width: 1.0;"/><line style="stroke: #A80036; stroke-width: 1.0;" x1="413.5" x2="575" y1="234.8921" y2="234.8921"/><text fill="#000000" font-family="sans-serif" font-size="13" font-weight="bold" lengthAdjust="spacingAndGlyphs" textLength="7" x="420.5" y="230.0356">5</text><text fill="#000000" font-family="sans-serif" font-size="13" lengthAdjust="spacingAndGlyphs" text-decoration="underline" textLength="17" x="431.5" y="230.0356">init</text><line style="stroke: #000000; stroke-width: 1.0;" x1="431.5" x2="448.5" y1="232.0356" y2="232.0356"/><polygon fill="#A80036" points="727.5,267.6465,737.5,271.6465,727.5,275.6465,731.5,271.6465" style="stroke: #A80036; stroke-width: 1.0;"/><line style="stroke: #A80036; stroke-width: 1.0; stroke-dasharray: 2.0,2.0;" x1="581" x2="733.5" y1="271.6465" y2="271.6465"/><text fill="#000000" font-family="sans-serif" font-size="13" font-weight="bold" lengthAdjust="spacingAndGlyphs" textLength="7" x="588" y="266.79">6</text><text fill="#000000" font-family="sans-serif" font-size="13" lengthAdjust="spacingAndGlyphs" text-decoration="underline" textLength="17" x="599" y="266.79">init</text><line style="stroke: #000000; stroke-width: 1.0;" x1="599" x2="616" y1="268.79" y2="268.79"/><path d="M744,247.8921 L744,274.8921 L1021,274.8921 L1021,257.8921 L1011,247.8921 L744,247.8921 " fill="#FBFB77" filter="url(#fdu2jfxteiicl)" style="stroke: #A80036; stroke-width: 1.0;"/><path d="M1011,247.8921 L1011,257.8921 L1021,257.8921 L1011,247.8921 " fill="#FBFB77" style="stroke: #A80036; stroke-width: 1.0;"/><text fill="#000000" font-family="sans-serif" font-size="13" lengthAdjust="spacingAndGlyphs" textLength="256" x="750" y="267.79">RequestHandlerClass:WSGIRequestHandler</text><polygon fill="#A80036" points="912.5,304.4009,922.5,308.4009,912.5,312.4009,916.5,308.4009" style="stroke: #A80036; stroke-width: 1.0;"/><line style="stroke: #A80036; stroke-width: 1.0;" x1="739.5" x2="918.5" y1="308.4009" y2="308.4009"/><text fill="#000000" font-family="sans-serif" font-size="13" font-weight="bold" lengthAdjust="spacingAndGlyphs" textLength="7" x="746.5" y="303.5444">7</text><text fill="#000000" font-family="sans-serif" font-size="13" lengthAdjust="spacingAndGlyphs" text-decoration="underline" textLength="17" x="757.5" y="303.5444">init</text><line style="stroke: #000000; stroke-width: 1.0;" x1="757.5" x2="774.5" y1="305.5444" y2="305.5444"/><polygon fill="#A80036" points="592,336.1553,582,340.1553,592,344.1553,588,340.1553" style="stroke: #A80036; stroke-width: 1.0;"/><line style="stroke: #A80036; stroke-width: 1.0;" x1="586" x2="738.5" y1="340.1553" y2="340.1553"/><text fill="#000000" font-family="sans-serif" font-size="13" font-weight="bold" lengthAdjust="spacingAndGlyphs" textLength="7" x="598" y="335.2988">8</text><text fill="#000000" font-family="sans-serif" font-size="13" lengthAdjust="spacingAndGlyphs" textLength="65" x="609" y="335.2988">server_bind</text><line style="stroke: #A80036; stroke-width: 1.0;" x1="739.5" x2="781.5" y1="371.9097" y2="371.9097"/><line style="stroke: #A80036; stroke-width: 1.0;" x1="781.5" x2="781.5" y1="371.9097" y2="384.9097"/><line style="stroke: #A80036; stroke-width: 1.0;" x1="740.5" x2="781.5" y1="384.9097" y2="384.9097"/><polygon fill="#A80036" points="750.5,380.9097,740.5,384.9097,750.5,388.9097,746.5,384.9097" style="stroke: #A80036; stroke-width: 1.0;"/><text fill="#000000" font-family="sans-serif" font-size="13" font-weight="bold" lengthAdjust="spacingAndGlyphs" textLength="7" x="746.5" y="367.0532">9</text><text fill="#000000" font-family="sans-serif" font-size="13" lengthAdjust="spacingAndGlyphs" textLength="85" x="757.5" y="367.0532">server_activate</text><polygon fill="#A80036" points="401.5,412.6641,411.5,416.6641,401.5,420.6641,405.5,416.6641" style="stroke: #A80036; stroke-width: 1.0;"/><line style="stroke: #A80036; stroke-width: 1.0;" x1="269.5" x2="407.5" y1="416.6641" y2="416.6641"/><text fill="#000000" font-family="sans-serif" font-size="13" font-weight="bold" lengthAdjust="spacingAndGlyphs" textLength="14" x="276.5" y="411.8076">10</text><text fill="#000000" font-family="sans-serif" font-size="13" lengthAdjust="spacingAndGlyphs" textLength="74" x="294.5" y="411.8076">serve_forever</text><polygon fill="#A80036" points="569,444.4185,579,448.4185,569,452.4185,573,448.4185" style="stroke: #A80036; stroke-width: 1.0;"/><line style="stroke: #A80036; stroke-width: 1.0;" x1="413.5" x2="575" y1="448.4185" y2="448.4185"/><text fill="#000000" font-family="sans-serif" font-size="13" font-weight="bold" lengthAdjust="spacingAndGlyphs" textLength="14" x="420.5" y="443.562">11</text><text fill="#000000" font-family="sans-serif" font-size="13" lengthAdjust="spacingAndGlyphs" textLength="74" x="438.5" y="443.562">serve_forever</text><polygon fill="#A80036" points="727.5,476.1729,737.5,480.1729,727.5,484.1729,731.5,480.1729" style="stroke: #A80036; stroke-width: 1.0;"/><line style="stroke: #A80036; stroke-width: 1.0; stroke-dasharray: 2.0,2.0;" x1="581" x2="733.5" y1="480.1729" y2="480.1729"/><text fill="#000000" font-family="sans-serif" font-size="13" font-weight="bold" lengthAdjust="spacingAndGlyphs" textLength="14" x="588" y="475.3164">12</text><text fill="#000000" font-family="sans-serif" font-size="13" lengthAdjust="spacingAndGlyphs" textLength="74" x="606" y="475.3164">serve_forever</text><polygon fill="#A80036" points="912.5,507.9272,922.5,511.9272,912.5,515.9272,916.5,511.9272" style="stroke: #A80036; stroke-width: 1.0;"/><line style="stroke: #A80036; stroke-width: 1.0; stroke-dasharray: 2.0,2.0;" x1="739.5" x2="918.5" y1="511.9272" y2="511.9272"/><text fill="#000000" font-family="sans-serif" font-size="13" font-weight="bold" lengthAdjust="spacingAndGlyphs" textLength="14" x="746.5" y="507.0708">13</text><text fill="#000000" font-family="sans-serif" font-size="13" lengthAdjust="spacingAndGlyphs" textLength="74" x="764.5" y="507.0708">serve_forever</text><line style="stroke: #A80036; stroke-width: 1.0;" x1="924.5" x2="966.5" y1="543.6816" y2="543.6816"/><line style="stroke: #A80036; stroke-width: 1.0;" x1="966.5" x2="966.5" y1="543.6816" y2="556.6816"/><line style="stroke: #A80036; stroke-width: 1.0;" x1="925.5" x2="966.5" y1="556.6816" y2="556.6816"/><polygon fill="#A80036" points="935.5,552.6816,925.5,556.6816,935.5,560.6816,931.5,556.6816" style="stroke: #A80036; stroke-width: 1.0;"/><text fill="#000000" font-family="sans-serif" font-size="13" font-weight="bold" lengthAdjust="spacingAndGlyphs" textLength="14" x="931.5" y="538.8252">14</text><text fill="#000000" font-family="sans-serif" font-size="13" lengthAdjust="spacingAndGlyphs" textLength="147" x="949.5" y="538.8252">_handle_request_noblock</text><polygon fill="#A80036" points="424.5,589.436,414.5,593.436,424.5,597.436,420.5,593.436" style="stroke: #A80036; stroke-width: 1.0;"/><line style="stroke: #A80036; stroke-width: 1.0;" x1="418.5" x2="923.5" y1="593.436" y2="593.436"/><text fill="#000000" font-family="sans-serif" font-size="13" font-weight="bold" lengthAdjust="spacingAndGlyphs" textLength="14" x="430.5" y="588.5796">15</text><text fill="#000000" font-family="sans-serif" font-size="13" lengthAdjust="spacingAndGlyphs" textLength="68" x="448.5" y="588.5796">get_request</text><path d="M339,569.6816 L339,596.6816 L404,596.6816 L404,579.6816 L394,569.6816 L339,569.6816 " fill="#FBFB77" filter="url(#fdu2jfxteiicl)" style="stroke: #A80036; stroke-width: 1.0;"/><path d="M394,569.6816 L394,579.6816 L404,579.6816 L394,569.6816 " fill="#FBFB77" style="stroke: #A80036; stroke-width: 1.0;"/><text fill="#000000" font-family="sans-serif" font-size="13" lengthAdjust="spacingAndGlyphs" textLength="44" x="345" y="589.5796">override</text><line style="stroke: #A80036; stroke-width: 1.0;" x1="924.5" x2="966.5" y1="630.1904" y2="630.1904"/><line style="stroke: #A80036; stroke-width: 1.0;" x1="966.5" x2="966.5" y1="630.1904" y2="643.1904"/><line style="stroke: #A80036; stroke-width: 1.0;" x1="925.5" x2="966.5" y1="643.1904" y2="643.1904"/><polygon fill="#A80036" points="935.5,639.1904,925.5,643.1904,935.5,647.1904,931.5,643.1904" style="stroke: #A80036; stroke-width: 1.0;"/><text fill="#000000" font-family="sans-serif" font-size="13" font-weight="bold" lengthAdjust="spacingAndGlyphs" textLength="14" x="931.5" y="625.334">16</text><text fill="#000000" font-family="sans-serif" font-size="13" lengthAdjust="spacingAndGlyphs" textLength="79" x="949.5" y="625.334">verify_request</text><line style="stroke: #A80036; stroke-width: 1.0;" x1="924.5" x2="966.5" y1="674.9448" y2="674.9448"/><line style="stroke: #A80036; stroke-width: 1.0;" x1="966.5" x2="966.5" y1="674.9448" y2="687.9448"/><line style="stroke: #A80036; stroke-width: 1.0;" x1="925.5" x2="966.5" y1="687.9448" y2="687.9448"/><polygon fill="#A80036" points="935.5,683.9448,925.5,687.9448,935.5,691.9448,931.5,687.9448" style="stroke: #A80036; stroke-width: 1.0;"/><text fill="#000000" font-family="sans-serif" font-size="13" font-weight="bold" lengthAdjust="spacingAndGlyphs" textLength="14" x="931.5" y="670.0884">17</text><text fill="#000000" font-family="sans-serif" font-size="13" lengthAdjust="spacingAndGlyphs" textLength="96" x="949.5" y="670.0884">process_request</text><line style="stroke: #A80036; stroke-width: 1.0;" x1="924.5" x2="966.5" y1="719.6992" y2="719.6992"/><line style="stroke: #A80036; stroke-width: 1.0;" x1="966.5" x2="966.5" y1="719.6992" y2="732.6992"/><line style="stroke: #A80036; stroke-width: 1.0;" x1="925.5" x2="966.5" y1="732.6992" y2="732.6992"/><polygon fill="#A80036" points="935.5,728.6992,925.5,732.6992,935.5,736.6992,931.5,732.6992" style="stroke: #A80036; stroke-width: 1.0;"/><text fill="#000000" font-family="sans-serif" font-size="13" font-weight="bold" lengthAdjust="spacingAndGlyphs" textLength="14" x="931.5" y="714.8428">18</text><text fill="#000000" font-family="sans-serif" font-size="13" lengthAdjust="spacingAndGlyphs" textLength="80" x="949.5" y="714.8428">finish_request</text><polygon fill="#A80036" points="1120.5,765.4536,1130.5,769.4536,1120.5,773.4536,1124.5,769.4536" style="stroke: #A80036; stroke-width: 1.0;"/><line style="stroke: #A80036; stroke-width: 1.0;" x1="924.5" x2="1126.5" y1="769.4536" y2="769.4536"/><text fill="#000000" font-family="sans-serif" font-size="13" font-weight="bold" lengthAdjust="spacingAndGlyphs" textLength="14" x="931.5" y="764.5972">19</text><text fill="#000000" font-family="sans-serif" font-size="13" lengthAdjust="spacingAndGlyphs" text-decoration="underline" textLength="17" x="949.5" y="764.5972">init</text><line style="stroke: #000000; stroke-width: 1.0;" x1="949.5" x2="966.5" y1="766.5972" y2="766.5972"/><path d="M769,745.6992 L769,772.6992 L915,772.6992 L915,755.6992 L905,745.6992 L769,745.6992 " fill="#FBFB77" filter="url(#fdu2jfxteiicl)" style="stroke: #A80036; stroke-width: 1.0;"/><path d="M905,745.6992 L905,755.6992 L915,755.6992 L905,745.6992 " fill="#FBFB77" style="stroke: #A80036; stroke-width: 1.0;"/><text fill="#000000" font-family="sans-serif" font-size="13" lengthAdjust="spacingAndGlyphs" textLength="125" x="775" y="765.5972">RequestHandlerClass</text><polygon fill="#A80036" points="1348,802.208,1358,806.208,1348,810.208,1352,806.208" style="stroke: #A80036; stroke-width: 1.0;"/><line style="stroke: #A80036; stroke-width: 1.0; stroke-dasharray: 2.0,2.0;" x1="1132.5" x2="1354" y1="806.208" y2="806.208"/><text fill="#000000" font-family="sans-serif" font-size="13" font-weight="bold" lengthAdjust="spacingAndGlyphs" textLength="14" x="1139.5" y="801.3516">20</text><text fill="#000000" font-family="sans-serif" font-size="13" lengthAdjust="spacingAndGlyphs" text-decoration="underline" textLength="17" x="1157.5" y="801.3516">init</text><line style="stroke: #000000; stroke-width: 1.0;" x1="1157.5" x2="1174.5" y1="803.3516" y2="803.3516"/><polygon fill="#A80036" points="1591,833.9624,1601,837.9624,1591,841.9624,1595,837.9624" style="stroke: #A80036; stroke-width: 1.0;"/><line style="stroke: #A80036; stroke-width: 1.0; stroke-dasharray: 2.0,2.0;" x1="1360" x2="1597" y1="837.9624" y2="837.9624"/><text fill="#000000" font-family="sans-serif" font-size="13" font-weight="bold" lengthAdjust="spacingAndGlyphs" textLength="14" x="1367" y="833.106">21</text><text fill="#000000" font-family="sans-serif" font-size="13" lengthAdjust="spacingAndGlyphs" text-decoration="underline" textLength="17" x="1385" y="833.106">init</text><line style="stroke: #000000; stroke-width: 1.0;" x1="1385" x2="1402" y1="835.106" y2="835.106"/><polygon fill="#A80036" points="1844.5,865.7168,1854.5,869.7168,1844.5,873.7168,1848.5,869.7168" style="stroke: #A80036; stroke-width: 1.0;"/><line style="stroke: #A80036; stroke-width: 1.0; stroke-dasharray: 2.0,2.0;" x1="1603" x2="1850.5" y1="869.7168" y2="869.7168"/><text fill="#000000" font-family="sans-serif" font-size="13" font-weight="bold" lengthAdjust="spacingAndGlyphs" textLength="14" x="1610" y="864.8604">22</text><text fill="#000000" font-family="sans-serif" font-size="13" lengthAdjust="spacingAndGlyphs" text-decoration="underline" textLength="17" x="1628" y="864.8604">init</text><line style="stroke: #000000; stroke-width: 1.0;" x1="1628" x2="1645" y1="866.8604" y2="866.8604"/><polygon fill="#A80036" points="1614,897.4712,1604,901.4712,1614,905.4712,1610,901.4712" style="stroke: #A80036; stroke-width: 1.0;"/><line style="stroke: #A80036; stroke-width: 1.0;" x1="1608" x2="1855.5" y1="901.4712" y2="901.4712"/><text fill="#000000" font-family="sans-serif" font-size="13" font-weight="bold" lengthAdjust="spacingAndGlyphs" textLength="14" x="1620" y="896.6147">23</text><text fill="#000000" font-family="sans-serif" font-size="13" lengthAdjust="spacingAndGlyphs" textLength="32" x="1638" y="896.6147">setup</text><polygon fill="#A80036" points="1143.5,934.2256,1133.5,938.2256,1143.5,942.2256,1139.5,938.2256" style="stroke: #A80036; stroke-width: 1.0;"/><line style="stroke: #A80036; stroke-width: 1.0;" x1="1137.5" x2="1855.5" y1="938.2256" y2="938.2256"/><text fill="#000000" font-family="sans-serif" font-size="13" font-weight="bold" lengthAdjust="spacingAndGlyphs" textLength="14" x="1149.5" y="933.3691">24</text><text fill="#000000" font-family="sans-serif" font-size="13" lengthAdjust="spacingAndGlyphs" textLength="38" x="1167.5" y="933.3691">handle</text><path d="M1058,914.4712 L1058,941.4712 L1123,941.4712 L1123,924.4712 L1113,914.4712 L1058,914.4712 " fill="#FBFB77" filter="url(#fdu2jfxteiicl)" style="stroke: #A80036; stroke-width: 1.0;"/><path d="M1113,914.4712 L1113,924.4712 L1123,924.4712 L1113,914.4712 " fill="#FBFB77" style="stroke: #A80036; stroke-width: 1.0;"/><text fill="#000000" font-family="sans-serif" font-size="13" lengthAdjust="spacingAndGlyphs" textLength="44" x="1064" y="934.3691">override</text><polygon fill="#A80036" points="1348,970.98,1358,974.98,1348,978.98,1352,974.98" style="stroke: #A80036; stroke-width: 1.0;"/><line style="stroke: #A80036; stroke-width: 1.0;" x1="1132.5" x2="1354" y1="974.98" y2="974.98"/><text fill="#000000" font-family="sans-serif" font-size="13" font-weight="bold" lengthAdjust="spacingAndGlyphs" textLength="14" x="1139.5" y="970.1235">25</text><text fill="#000000" font-family="sans-serif" font-size="13" lengthAdjust="spacingAndGlyphs" textLength="38" x="1157.5" y="970.1235">handle</text><polygon fill="#A80036" points="1143.5,1007.7344,1133.5,1011.7344,1143.5,1015.7344,1139.5,1011.7344" style="stroke: #A80036; stroke-width: 1.0;"/><line style="stroke: #A80036; stroke-width: 1.0;" x1="1137.5" x2="1359" y1="1011.7344" y2="1011.7344"/><text fill="#000000" font-family="sans-serif" font-size="13" font-weight="bold" lengthAdjust="spacingAndGlyphs" textLength="14" x="1149.5" y="1006.8779">26</text><text fill="#000000" font-family="sans-serif" font-size="13" lengthAdjust="spacingAndGlyphs" textLength="116" x="1167.5" y="1006.8779">handle_one_request</text><path d="M1058,987.98 L1058,1014.98 L1123,1014.98 L1123,997.98 L1113,987.98 L1058,987.98 " fill="#FBFB77" filter="url(#fdu2jfxteiicl)" style="stroke: #A80036; stroke-width: 1.0;"/><path d="M1113,987.98 L1113,997.98 L1123,997.98 L1113,987.98 " fill="#FBFB77" style="stroke: #A80036; stroke-width: 1.0;"/><text fill="#000000" font-family="sans-serif" font-size="13" lengthAdjust="spacingAndGlyphs" textLength="44" x="1064" y="1007.8779">override</text><line style="stroke: #A80036; stroke-width: 1.0;" x1="1132.5" x2="1174.5" y1="1048.4888" y2="1048.4888"/><line style="stroke: #A80036; stroke-width: 1.0;" x1="1174.5" x2="1174.5" y1="1048.4888" y2="1061.4888"/><line style="stroke: #A80036; stroke-width: 1.0;" x1="1133.5" x2="1174.5" y1="1061.4888" y2="1061.4888"/><polygon fill="#A80036" points="1143.5,1057.4888,1133.5,1061.4888,1143.5,1065.4888,1139.5,1061.4888" style="stroke: #A80036; stroke-width: 1.0;"/><text fill="#000000" font-family="sans-serif" font-size="13" font-weight="bold" lengthAdjust="spacingAndGlyphs" textLength="14" x="1139.5" y="1043.6323">27</text><text fill="#000000" font-family="sans-serif" font-size="13" lengthAdjust="spacingAndGlyphs" textLength="82" x="1157.5" y="1043.6323">parse_request</text><polygon fill="#A80036" points="1348,1089.2432,1358,1093.2432,1348,1097.2432,1352,1093.2432" style="stroke: #A80036; stroke-width: 1.0;"/><line style="stroke: #A80036; stroke-width: 1.0; stroke-dasharray: 2.0,2.0;" x1="1132.5" x2="1354" y1="1093.2432" y2="1093.2432"/><text fill="#000000" font-family="sans-serif" font-size="13" font-weight="bold" lengthAdjust="spacingAndGlyphs" textLength="14" x="1139.5" y="1088.3867">28</text><text fill="#000000" font-family="sans-serif" font-size="13" lengthAdjust="spacingAndGlyphs" textLength="82" x="1157.5" y="1088.3867">parse_request</text><line style="stroke: #A80036; stroke-width: 1.0;" x1="1132.5" x2="1174.5" y1="1124.9976" y2="1124.9976"/><line style="stroke: #A80036; stroke-width: 1.0;" x1="1174.5" x2="1174.5" y1="1124.9976" y2="1137.9976"/><line style="stroke: #A80036; stroke-width: 1.0;" x1="1133.5" x2="1174.5" y1="1137.9976" y2="1137.9976"/><polygon fill="#A80036" points="1143.5,1133.9976,1133.5,1137.9976,1143.5,1141.9976,1139.5,1137.9976" style="stroke: #A80036; stroke-width: 1.0;"/><text fill="#000000" font-family="sans-serif" font-size="13" font-weight="bold" lengthAdjust="spacingAndGlyphs" textLength="14" x="1139.5" y="1120.1411">29</text><text fill="#000000" font-family="sans-serif" font-size="13" lengthAdjust="spacingAndGlyphs" textLength="51" x="1157.5" y="1120.1411">run_wsgi</text><path d="M1068,1107.7432 L1068,1134.7432 L1123,1134.7432 L1123,1117.7432 L1113,1107.7432 L1068,1107.7432 " fill="#FBFB77" filter="url(#fdu2jfxteiicl)" style="stroke: #A80036; stroke-width: 1.0;"/><path d="M1113,1107.7432 L1113,1117.7432 L1123,1117.7432 L1113,1107.7432 " fill="#FBFB77" style="stroke: #A80036; stroke-width: 1.0;"/><text fill="#000000" font-family="sans-serif" font-size="13" lengthAdjust="spacingAndGlyphs" textLength="34" x="1074" y="1127.6411">begin!</text><line style="stroke: #A80036; stroke-width: 1.0;" x1="1132.5" x2="1174.5" y1="1169.752" y2="1169.752"/><line style="stroke: #A80036; stroke-width: 1.0;" x1="1174.5" x2="1174.5" y1="1169.752" y2="1182.752"/><line style="stroke: #A80036; stroke-width: 1.0;" x1="1133.5" x2="1174.5" y1="1182.752" y2="1182.752"/><polygon fill="#A80036" points="1143.5,1178.752,1133.5,1182.752,1143.5,1186.752,1139.5,1182.752" style="stroke: #A80036; stroke-width: 1.0;"/><text fill="#000000" font-family="sans-serif" font-size="13" font-weight="bold" lengthAdjust="spacingAndGlyphs" textLength="14" x="1139.5" y="1164.8955">30</text><text fill="#000000" font-family="sans-serif" font-size="13" lengthAdjust="spacingAndGlyphs" textLength="79" x="1157.5" y="1164.8955">make_environ</text><line style="stroke: #A80036; stroke-width: 1.0;" x1="1132.5" x2="1174.5" y1="1214.5063" y2="1214.5063"/><line style="stroke: #A80036; stroke-width: 1.0;" x1="1174.5" x2="1174.5" y1="1214.5063" y2="1227.5063"/><line style="stroke: #A80036; stroke-width: 1.0;" x1="1133.5" x2="1174.5" y1="1227.5063" y2="1227.5063"/><polygon fill="#A80036" points="1143.5,1223.5063,1133.5,1227.5063,1143.5,1231.5063,1139.5,1227.5063" style="stroke: #A80036; stroke-width: 1.0;"/><text fill="#000000" font-family="sans-serif" font-size="13" font-weight="bold" lengthAdjust="spacingAndGlyphs" textLength="14" x="1139.5" y="1209.6499">31</text><text fill="#000000" font-family="sans-serif" font-size="13" lengthAdjust="spacingAndGlyphs" textLength="101" x="1157.5" y="1209.6499">run_wsgi.execute</text><path d="M939,1197.252 L939,1224.252 L1123,1224.252 L1123,1207.252 L1113,1197.252 L939,1197.252 " fill="#FBFB77" filter="url(#fdu2jfxteiicl)" style="stroke: #A80036; stroke-width: 1.0;"/><path d="M1113,1197.252 L1113,1207.252 L1123,1207.252 L1113,1197.252 " fill="#FBFB77" style="stroke: #A80036; stroke-width: 1.0;"/><text fill="#000000" font-family="sans-serif" font-size="13" lengthAdjust="spacingAndGlyphs" textLength="163" x="945" y="1217.1499">app(environ, start_response)</text><polygon fill="#A80036" points="134.5,1255.2607,124.5,1259.2607,134.5,1263.2607,130.5,1259.2607" style="stroke: #A80036; stroke-width: 1.0;"/><line style="stroke: #A80036; stroke-width: 1.0;" x1="128.5" x2="1131.5" y1="1259.2607" y2="1259.2607"/><text fill="#000000" font-family="sans-serif" font-size="13" font-weight="bold" lengthAdjust="spacingAndGlyphs" textLength="14" x="140.5" y="1254.4043">32</text><text fill="#000000" font-family="sans-serif" font-size="13" lengthAdjust="spacingAndGlyphs" text-decoration="underline" textLength="20" x="158.5" y="1254.4043">call</text><line style="stroke: #000000; stroke-width: 1.0;" x1="158.5" x2="178.5" y1="1256.4043" y2="1256.4043"/><line style="stroke: #A80036; stroke-width: 1.0;" x1="123.5" x2="165.5" y1="1291.0151" y2="1291.0151"/><line style="stroke: #A80036; stroke-width: 1.0;" x1="165.5" x2="165.5" y1="1291.0151" y2="1304.0151"/><line style="stroke: #A80036; stroke-width: 1.0;" x1="124.5" x2="165.5" y1="1304.0151" y2="1304.0151"/><polygon fill="#A80036" points="134.5,1300.0151,124.5,1304.0151,134.5,1308.0151,130.5,1304.0151" style="stroke: #A80036; stroke-width: 1.0;"/><text fill="#000000" font-family="sans-serif" font-size="13" font-weight="bold" lengthAdjust="spacingAndGlyphs" textLength="14" x="130.5" y="1286.1587">33</text><text fill="#000000" font-family="sans-serif" font-size="13" lengthAdjust="spacingAndGlyphs" textLength="54" x="148.5" y="1286.1587">wsgi_app</text><line style="stroke: #A80036; stroke-width: 1.0;" x1="123.5" x2="165.5" y1="1335.7695" y2="1335.7695"/><line style="stroke: #A80036; stroke-width: 1.0;" x1="165.5" x2="165.5" y1="1335.7695" y2="1348.7695"/><line style="stroke: #A80036; stroke-width: 1.0;" x1="124.5" x2="165.5" y1="1348.7695" y2="1348.7695"/><polygon fill="#A80036" points="134.5,1344.7695,124.5,1348.7695,134.5,1352.7695,130.5,1348.7695" style="stroke: #A80036; stroke-width: 1.0;"/><text fill="#000000" font-family="sans-serif" font-size="13" font-weight="bold" lengthAdjust="spacingAndGlyphs" textLength="14" x="130.5" y="1330.9131">34</text><text fill="#000000" font-family="sans-serif" font-size="13" lengthAdjust="spacingAndGlyphs" textLength="93" x="148.5" y="1330.9131">request_context</text><line style="stroke: #A80036; stroke-width: 1.0;" x1="123.5" x2="165.5" y1="1380.5239" y2="1380.5239"/><line style="stroke: #A80036; stroke-width: 1.0;" x1="165.5" x2="165.5" y1="1380.5239" y2="1393.5239"/><line style="stroke: #A80036; stroke-width: 1.0;" x1="124.5" x2="165.5" y1="1393.5239" y2="1393.5239"/><polygon fill="#A80036" points="134.5,1389.5239,124.5,1393.5239,134.5,1397.5239,130.5,1393.5239" style="stroke: #A80036; stroke-width: 1.0;"/><text fill="#000000" font-family="sans-serif" font-size="13" font-weight="bold" lengthAdjust="spacingAndGlyphs" textLength="14" x="130.5" y="1375.6675">35</text><text fill="#000000" font-family="sans-serif" font-size="13" lengthAdjust="spacingAndGlyphs" textLength="114" x="148.5" y="1375.6675">preprocess_request</text><line style="stroke: #A80036; stroke-width: 1.0;" x1="123.5" x2="165.5" y1="1425.2783" y2="1425.2783"/><line style="stroke: #A80036; stroke-width: 1.0;" x1="165.5" x2="165.5" y1="1425.2783" y2="1438.2783"/><line style="stroke: #A80036; stroke-width: 1.0;" x1="124.5" x2="165.5" y1="1438.2783" y2="1438.2783"/><polygon fill="#A80036" points="134.5,1434.2783,124.5,1438.2783,134.5,1442.2783,130.5,1438.2783" style="stroke: #A80036; stroke-width: 1.0;"/><text fill="#000000" font-family="sans-serif" font-size="13" font-weight="bold" lengthAdjust="spacingAndGlyphs" textLength="14" x="130.5" y="1420.4219">36</text><text fill="#000000" font-family="sans-serif" font-size="13" lengthAdjust="spacingAndGlyphs" textLength="99" x="148.5" y="1420.4219">dispatch_request</text><line style="stroke: #A80036; stroke-width: 1.0;" x1="123.5" x2="165.5" y1="1470.0327" y2="1470.0327"/><line style="stroke: #A80036; stroke-width: 1.0;" x1="165.5" x2="165.5" y1="1470.0327" y2="1483.0327"/><line style="stroke: #A80036; stroke-width: 1.0;" x1="124.5" x2="165.5" y1="1483.0327" y2="1483.0327"/><polygon fill="#A80036" points="134.5,1479.0327,124.5,1483.0327,134.5,1487.0327,130.5,1483.0327" style="stroke: #A80036; stroke-width: 1.0;"/><text fill="#000000" font-family="sans-serif" font-size="13" font-weight="bold" lengthAdjust="spacingAndGlyphs" textLength="14" x="130.5" y="1465.1763">37</text><text fill="#000000" font-family="sans-serif" font-size="13" lengthAdjust="spacingAndGlyphs" textLength="86" x="148.5" y="1465.1763">match_request</text><line style="stroke: #A80036; stroke-width: 1.0;" x1="123.5" x2="165.5" y1="1514.7871" y2="1514.7871"/><line style="stroke: #A80036; stroke-width: 1.0;" x1="165.5" x2="165.5" y1="1514.7871" y2="1527.7871"/><line style="stroke: #A80036; stroke-width: 1.0;" x1="124.5" x2="165.5" y1="1527.7871" y2="1527.7871"/><polygon fill="#A80036" points="134.5,1523.7871,124.5,1527.7871,134.5,1531.7871,130.5,1527.7871" style="stroke: #A80036; stroke-width: 1.0;"/><text fill="#000000" font-family="sans-serif" font-size="13" font-weight="bold" lengthAdjust="spacingAndGlyphs" textLength="14" x="130.5" y="1509.9307">38</text><text fill="#000000" font-family="sans-serif" font-size="13" lengthAdjust="spacingAndGlyphs" textLength="92" x="148.5" y="1509.9307">make_response</text><polygon fill="#A80036" points="2045.5,1555.5415,2055.5,1559.5415,2045.5,1563.5415,2049.5,1559.5415" style="stroke: #A80036; stroke-width: 1.0;"/><line style="stroke: #A80036; stroke-width: 1.0;" x1="123.5" x2="2051.5" y1="1559.5415" y2="1559.5415"/><text fill="#000000" font-family="sans-serif" font-size="13" font-weight="bold" lengthAdjust="spacingAndGlyphs" textLength="14" x="130.5" y="1554.6851">39</text><text fill="#000000" font-family="sans-serif" font-size="13" lengthAdjust="spacingAndGlyphs" textLength="0" x="152.5" y="1554.6851"/><line style="stroke: #A80036; stroke-width: 1.0;" x1="123.5" x2="165.5" y1="1591.2959" y2="1591.2959"/><line style="stroke: #A80036; stroke-width: 1.0;" x1="165.5" x2="165.5" y1="1591.2959" y2="1604.2959"/><line style="stroke: #A80036; stroke-width: 1.0;" x1="124.5" x2="165.5" y1="1604.2959" y2="1604.2959"/><polygon fill="#A80036" points="134.5,1600.2959,124.5,1604.2959,134.5,1608.2959,130.5,1604.2959" style="stroke: #A80036; stroke-width: 1.0;"/><text fill="#000000" font-family="sans-serif" font-size="13" font-weight="bold" lengthAdjust="spacingAndGlyphs" textLength="14" x="130.5" y="1586.4395">40</text><text fill="#000000" font-family="sans-serif" font-size="13" lengthAdjust="spacingAndGlyphs" textLength="106" x="148.5" y="1586.4395">process_response</text><polygon fill="#A80036" points="2045.5,1632.0503,2055.5,1636.0503,2045.5,1640.0503,2049.5,1636.0503" style="stroke: #A80036; stroke-width: 1.0;"/><line style="stroke: #A80036; stroke-width: 1.0;" x1="123.5" x2="2051.5" y1="1636.0503" y2="1636.0503"/><text fill="#000000" font-family="sans-serif" font-size="13" font-weight="bold" lengthAdjust="spacingAndGlyphs" textLength="14" x="130.5" y="1631.1938">41</text><text fill="#000000" font-family="sans-serif" font-size="13" lengthAdjust="spacingAndGlyphs" text-decoration="underline" textLength="20" x="148.5" y="1631.1938">call</text><line style="stroke: #000000; stroke-width: 1.0;" x1="148.5" x2="168.5" y1="1633.1938" y2="1633.1938"/><polygon fill="#A80036" points="1614,1663.8047,1604,1667.8047,1614,1671.8047,1610,1667.8047" style="stroke: #A80036; stroke-width: 1.0;"/><line style="stroke: #A80036; stroke-width: 1.0;" x1="1608" x2="1855.5" y1="1667.8047" y2="1667.8047"/><text fill="#000000" font-family="sans-serif" font-size="13" font-weight="bold" lengthAdjust="spacingAndGlyphs" textLength="14" x="1620" y="1662.9482">42</text><text fill="#000000" font-family="sans-serif" font-size="13" lengthAdjust="spacingAndGlyphs" textLength="30" x="1638" y="1662.9482">finish</text><line style="stroke: #A80036; stroke-width: 1.0;" x1="413.5" x2="455.5" y1="1699.5591" y2="1699.5591"/><line style="stroke: #A80036; stroke-width: 1.0;" x1="455.5" x2="455.5" y1="1699.5591" y2="1712.5591"/><line style="stroke: #A80036; stroke-width: 1.0;" x1="414.5" x2="455.5" y1="1712.5591" y2="1712.5591"/><polygon fill="#A80036" points="424.5,1708.5591,414.5,1712.5591,424.5,1716.5591,420.5,1712.5591" style="stroke: #A80036; stroke-width: 1.0;"/><text fill="#000000" font-family="sans-serif" font-size="13" font-weight="bold" lengthAdjust="spacingAndGlyphs" textLength="14" x="420.5" y="1694.7026">43</text><text fill="#000000" font-family="sans-serif" font-size="13" lengthAdjust="spacingAndGlyphs" textLength="72" x="438.5" y="1694.7026">server_close</text><!--
@startuml flask-callflow
autonumber
main -> flask.Flask: run
    flask.Flask -> werkzeug: run_simple
    note left: application:self
        werkzeug -> werkzeug: make_server
            werkzeug -> werkzeug.BaseWSGIServer: __init__
            note right: handler:WSGIRequestHandler
                werkzeug.BaseWSGIServer -> http.HTTPServer: __init__
                http.HTTPServer - -> socketserver.TCPServer: __init__
                note right: RequestHandlerClass:WSGIRequestHandler
                    socketserver.TCPServer -> socketserver.BaseServer: __init__
                    socketserver.TCPServer -> http.HTTPServer: server_bind
                    socketserver.TCPServer -> socketserver.TCPServer: server_activate
        werkzeug -> werkzeug.BaseWSGIServer: serve_forever
            werkzeug.BaseWSGIServer -> http.HTTPServer: serve_forever
            http.HTTPServer - -> socketserver.TCPServer: serve_forever
            socketserver.TCPServer - -> socketserver.BaseServer: serve_forever
                socketserver.BaseServer -> socketserver.BaseServer: _handle_request_noblock
                    socketserver.BaseServer -> werkzeug.BaseWSGIServer: get_request
                    note left: override
                    socketserver.BaseServer -> socketserver.BaseServer: verify_request
                    socketserver.BaseServer -> socketserver.BaseServer: process_request
                        socketserver.BaseServer -> socketserver.BaseServer: finish_request
                            socketserver.BaseServer -> werkzeug.WSGIRequestHandler: __init__
                            note left: RequestHandlerClass
                            werkzeug.WSGIRequestHandler - -> http.BaseHTTPRequestHandler: __init__
                            http.BaseHTTPRequestHandler - -> socketserver.StreamRequestHandler: __init__
                            socketserver.StreamRequestHandler - -> socketserver.BaseRequestHandler: __init__
                                socketserver.BaseRequestHandler -> socketserver.StreamRequestHandler: setup
                                socketserver.BaseRequestHandler -> werkzeug.WSGIRequestHandler: handle
                                note left: override
                                    werkzeug.WSGIRequestHandler -> http.BaseHTTPRequestHandler: handle
                                        http.BaseHTTPRequestHandler -> werkzeug.WSGIRequestHandler: handle_one_request
                                        note left: override
                                            werkzeug.WSGIRequestHandler -> werkzeug.WSGIRequestHandler: parse_request
                                            werkzeug.WSGIRequestHandler - -> http.BaseHTTPRequestHandler: parse_request
                                            werkzeug.WSGIRequestHandler -> werkzeug.WSGIRequestHandler: run_wsgi
                                            note left: begin!
                                                werkzeug.WSGIRequestHandler -> werkzeug.WSGIRequestHandler: make_environ
                                                werkzeug.WSGIRequestHandler -> werkzeug.WSGIRequestHandler: run_wsgi.execute
                                                note left: app(environ, start_response)
                                                    werkzeug.WSGIRequestHandler -> flask.Flask: __call__
                                                        flask.Flask -> flask.Flask: wsgi_app
                                                            flask.Flask -> flask.Flask: request_context
                                                            flask.Flask -> flask.Flask: preprocess_request
                                                            flask.Flask -> flask.Flask: dispatch_request
                                                                flask.Flask -> flask.Flask: match_request
                                                            flask.Flask -> flask.Flask: make_response
                                                                flask.Flask -> werkzeug.Response
                                                            flask.Flask -> flask.Flask: process_response
                                                            flask.Flask -> werkzeug.Response: __call__
                                socketserver.BaseRequestHandler -> socketserver.StreamRequestHandler: finish
            werkzeug.BaseWSGIServer -> werkzeug.BaseWSGIServer: server_close
@enduml

PlantUML version 1.2018.12(Sun Oct 21 18:15:15 CST 2018)
(GPL source distribution)
Java Runtime: Java(TM) SE Runtime Environment
JVM: Java HotSpot(TM) 64-Bit Server VM
Java Version: 1.8.0_192-b12
Operating System: Windows 10
OS Version: 10.0
Default Encoding: GBK
Language: zh
Country: CN
--></g></svg>