<?xml version="1.0" encoding="UTF-8" standalone="no"?><svg xmlns="http://www.w3.org/2000/svg" xmlns:xlink="http://www.w3.org/1999/xlink" contentScriptType="application/ecmascript" contentStyleType="text/css" height="1365px" preserveAspectRatio="none" style="width:1934px;height:1365px;" version="1.1" viewBox="0 0 1934 1365" width="1934px" zoomAndPan="magnify"><defs><filter height="300%" id="fvzucnkmrhyl5" width="300%" x="-1" y="-1"><feGaussianBlur result="blurOut" stdDeviation="2.0"/><feColorMatrix in="blurOut" result="blurOut2" type="matrix" values="0 0 0 0 0 0 0 0 0 0 0 0 0 0 0 0 0 0 .4 0"/><feOffset dx="4.0" dy="4.0" in="blurOut2" result="blurOut3"/><feBlend in="SourceGraphic" in2="blurOut3" mode="normal"/></filter></defs><g><line style="stroke: #A80036; stroke-width: 1.0; stroke-dasharray: 5.0,5.0;" x1="51" x2="51" y1="41.1201" y2="1322.0151"/><line style="stroke: #A80036; stroke-width: 1.0; stroke-dasharray: 5.0,5.0;" x1="123" x2="123" y1="41.1201" y2="1322.0151"/><line style="stroke: #A80036; stroke-width: 1.0; stroke-dasharray: 5.0,5.0;" x1="221" x2="221" y1="41.1201" y2="1322.0151"/><line style="stroke: #A80036; stroke-width: 1.0; stroke-dasharray: 5.0,5.0;" x1="365" x2="365" y1="41.1201" y2="1322.0151"/><line style="stroke: #A80036; stroke-width: 1.0; stroke-dasharray: 5.0,5.0;" x1="533" x2="533" y1="41.1201" y2="1322.0151"/><line style="stroke: #A80036; stroke-width: 1.0; stroke-dasharray: 5.0,5.0;" x1="691" x2="691" y1="41.1201" y2="1322.0151"/><line style="stroke: #A80036; stroke-width: 1.0; stroke-dasharray: 5.0,5.0;" x1="876" x2="876" y1="41.1201" y2="1322.0151"/><line style="stroke: #A80036; stroke-width: 1.0; stroke-dasharray: 5.0,5.0;" x1="1084" x2="1084" y1="41.1201" y2="1322.0151"/><line style="stroke: #A80036; stroke-width: 1.0; stroke-dasharray: 5.0,5.0;" x1="1312" x2="1312" y1="41.1201" y2="1322.0151"/><line style="stroke: #A80036; stroke-width: 1.0; stroke-dasharray: 5.0,5.0;" x1="1555" x2="1555" y1="41.1201" y2="1322.0151"/><line style="stroke: #A80036; stroke-width: 1.0; stroke-dasharray: 5.0,5.0;" x1="1808" x2="1808" y1="41.1201" y2="1322.0151"/><rect fill="#FEFECE" filter="url(#fvzucnkmrhyl5)" height="33.1201" style="stroke: #A80036; stroke-width: 1.5;" width="44" x="27" y="3"/><text fill="#000000" font-family="sans-serif" font-size="14" lengthAdjust="spacingAndGlyphs" textLength="30" x="34" y="26.0439">main</text><rect fill="#FEFECE" filter="url(#fvzucnkmrhyl5)" height="33.1201" style="stroke: #A80036; stroke-width: 1.5;" width="44" x="27" y="1321.0151"/><text fill="#000000" font-family="sans-serif" font-size="14" lengthAdjust="spacingAndGlyphs" textLength="30" x="34" y="1344.0591">main</text><rect fill="#FEFECE" filter="url(#fvzucnkmrhyl5)" height="33.1201" style="stroke: #A80036; stroke-width: 1.5;" width="73" x="85" y="3"/><text fill="#000000" font-family="sans-serif" font-size="14" lengthAdjust="spacingAndGlyphs" textLength="59" x="92" y="26.0439">FlaskApp</text><rect fill="#FEFECE" filter="url(#fvzucnkmrhyl5)" height="33.1201" style="stroke: #A80036; stroke-width: 1.5;" width="73" x="85" y="1321.0151"/><text fill="#000000" font-family="sans-serif" font-size="14" lengthAdjust="spacingAndGlyphs" textLength="59" x="92" y="1344.0591">FlaskApp</text><rect fill="#FEFECE" filter="url(#fvzucnkmrhyl5)" height="33.1201" style="stroke: #A80036; stroke-width: 1.5;" width="73" x="183" y="3"/><text fill="#000000" font-family="sans-serif" font-size="14" lengthAdjust="spacingAndGlyphs" textLength="59" x="190" y="26.0439">werkzeug</text><rect fill="#FEFECE" filter="url(#fvzucnkmrhyl5)" height="33.1201" style="stroke: #A80036; stroke-width: 1.5;" width="73" x="183" y="1321.0151"/><text fill="#000000" font-family="sans-serif" font-size="14" lengthAdjust="spacingAndGlyphs" textLength="59" x="190" y="1344.0591">werkzeug</text><rect fill="#FEFECE" filter="url(#fvzucnkmrhyl5)" height="33.1201" style="stroke: #A80036; stroke-width: 1.5;" width="187" x="270" y="3"/><text fill="#000000" font-family="sans-serif" font-size="14" lengthAdjust="spacingAndGlyphs" textLength="173" x="277" y="26.0439">werkzeug.BaseWSGIServer</text><rect fill="#FEFECE" filter="url(#fvzucnkmrhyl5)" height="33.1201" style="stroke: #A80036; stroke-width: 1.5;" width="187" x="270" y="1321.0151"/><text fill="#000000" font-family="sans-serif" font-size="14" lengthAdjust="spacingAndGlyphs" textLength="173" x="277" y="1344.0591">werkzeug.BaseWSGIServer</text><rect fill="#FEFECE" filter="url(#fvzucnkmrhyl5)" height="33.1201" style="stroke: #A80036; stroke-width: 1.5;" width="120" x="471" y="3"/><text fill="#000000" font-family="sans-serif" font-size="14" lengthAdjust="spacingAndGlyphs" textLength="106" x="478" y="26.0439">http.HTTPServer</text><rect fill="#FEFECE" filter="url(#fvzucnkmrhyl5)" height="33.1201" style="stroke: #A80036; stroke-width: 1.5;" width="120" x="471" y="1321.0151"/><text fill="#000000" font-family="sans-serif" font-size="14" lengthAdjust="spacingAndGlyphs" textLength="106" x="478" y="1344.0591">http.HTTPServer</text><rect fill="#FEFECE" filter="url(#fvzucnkmrhyl5)" height="33.1201" style="stroke: #A80036; stroke-width: 1.5;" width="169" x="605" y="3"/><text fill="#000000" font-family="sans-serif" font-size="14" lengthAdjust="spacingAndGlyphs" textLength="155" x="612" y="26.0439">socketserver.TCPServer</text><rect fill="#FEFECE" filter="url(#fvzucnkmrhyl5)" height="33.1201" style="stroke: #A80036; stroke-width: 1.5;" width="169" x="605" y="1321.0151"/><text fill="#000000" font-family="sans-serif" font-size="14" lengthAdjust="spacingAndGlyphs" textLength="155" x="612" y="1344.0591">socketserver.TCPServer</text><rect fill="#FEFECE" filter="url(#fvzucnkmrhyl5)" height="33.1201" style="stroke: #A80036; stroke-width: 1.5;" width="173" x="788" y="3"/><text fill="#000000" font-family="sans-serif" font-size="14" lengthAdjust="spacingAndGlyphs" textLength="159" x="795" y="26.0439">socketserver.BaseServer</text><rect fill="#FEFECE" filter="url(#fvzucnkmrhyl5)" height="33.1201" style="stroke: #A80036; stroke-width: 1.5;" width="173" x="788" y="1321.0151"/><text fill="#000000" font-family="sans-serif" font-size="14" lengthAdjust="spacingAndGlyphs" textLength="159" x="795" y="1344.0591">socketserver.BaseServer</text><rect fill="#FEFECE" filter="url(#fvzucnkmrhyl5)" height="33.1201" style="stroke: #A80036; stroke-width: 1.5;" width="215" x="975" y="3"/><text fill="#000000" font-family="sans-serif" font-size="14" lengthAdjust="spacingAndGlyphs" textLength="201" x="982" y="26.0439">werkzeug.WSGIRequestHandler</text><rect fill="#FEFECE" filter="url(#fvzucnkmrhyl5)" height="33.1201" style="stroke: #A80036; stroke-width: 1.5;" width="215" x="975" y="1321.0151"/><text fill="#000000" font-family="sans-serif" font-size="14" lengthAdjust="spacingAndGlyphs" textLength="201" x="982" y="1344.0591">werkzeug.WSGIRequestHandler</text><rect fill="#FEFECE" filter="url(#fvzucnkmrhyl5)" height="33.1201" style="stroke: #A80036; stroke-width: 1.5;" width="212" x="1204" y="3"/><text fill="#000000" font-family="sans-serif" font-size="14" lengthAdjust="spacingAndGlyphs" textLength="198" x="1211" y="26.0439">http.BaseHTTPRequestHandler</text><rect fill="#FEFECE" filter="url(#fvzucnkmrhyl5)" height="33.1201" style="stroke: #A80036; stroke-width: 1.5;" width="212" x="1204" y="1321.0151"/><text fill="#000000" font-family="sans-serif" font-size="14" lengthAdjust="spacingAndGlyphs" textLength="198" x="1211" y="1344.0591">http.BaseHTTPRequestHandler</text><rect fill="#FEFECE" filter="url(#fvzucnkmrhyl5)" height="33.1201" style="stroke: #A80036; stroke-width: 1.5;" width="246" x="1430" y="3"/><text fill="#000000" font-family="sans-serif" font-size="14" lengthAdjust="spacingAndGlyphs" textLength="232" x="1437" y="26.0439">socketserver.StreamRequestHandler</text><rect fill="#FEFECE" filter="url(#fvzucnkmrhyl5)" height="33.1201" style="stroke: #A80036; stroke-width: 1.5;" width="246" x="1430" y="1321.0151"/><text fill="#000000" font-family="sans-serif" font-size="14" lengthAdjust="spacingAndGlyphs" textLength="232" x="1437" y="1344.0591">socketserver.StreamRequestHandler</text><rect fill="#FEFECE" filter="url(#fvzucnkmrhyl5)" height="33.1201" style="stroke: #A80036; stroke-width: 1.5;" width="233" x="1690" y="3"/><text fill="#000000" font-family="sans-serif" font-size="14" lengthAdjust="spacingAndGlyphs" textLength="219" x="1697" y="26.0439">socketserver.BaseRequestHandler</text><rect fill="#FEFECE" filter="url(#fvzucnkmrhyl5)" height="33.1201" style="stroke: #A80036; stroke-width: 1.5;" width="233" x="1690" y="1321.0151"/><text fill="#000000" font-family="sans-serif" font-size="14" lengthAdjust="spacingAndGlyphs" textLength="219" x="1697" y="1344.0591">socketserver.BaseRequestHandler</text><polygon fill="#A80036" points="111.5,70.8745,121.5,74.8745,111.5,78.8745,115.5,74.8745" style="stroke: #A80036; stroke-width: 1.0;"/><line style="stroke: #A80036; stroke-width: 1.0;" x1="51" x2="117.5" y1="74.8745" y2="74.8745"/><text fill="#000000" font-family="sans-serif" font-size="13" font-weight="bold" lengthAdjust="spacingAndGlyphs" textLength="7" x="58" y="70.0181">1</text><text fill="#000000" font-family="sans-serif" font-size="13" lengthAdjust="spacingAndGlyphs" textLength="18" x="69" y="70.0181">run</text><polygon fill="#A80036" points="209.5,107.6289,219.5,111.6289,209.5,115.6289,213.5,111.6289" style="stroke: #A80036; stroke-width: 1.0;"/><line style="stroke: #A80036; stroke-width: 1.0;" x1="123.5" x2="215.5" y1="111.6289" y2="111.6289"/><text fill="#000000" font-family="sans-serif" font-size="13" font-weight="bold" lengthAdjust="spacingAndGlyphs" textLength="7" x="130.5" y="106.7725">2</text><text fill="#000000" font-family="sans-serif" font-size="13" lengthAdjust="spacingAndGlyphs" textLength="63" x="141.5" y="106.7725">run_simple</text><path d="M8,87.8745 L8,114.8745 L115,114.8745 L115,97.8745 L105,87.8745 L8,87.8745 " fill="#FBFB77" filter="url(#fvzucnkmrhyl5)" style="stroke: #A80036; stroke-width: 1.0;"/><path d="M105,87.8745 L105,97.8745 L115,97.8745 L105,87.8745 " fill="#FBFB77" style="stroke: #A80036; stroke-width: 1.0;"/><text fill="#000000" font-family="sans-serif" font-size="13" lengthAdjust="spacingAndGlyphs" textLength="86" x="14" y="107.7725">application:self</text><line style="stroke: #A80036; stroke-width: 1.0;" x1="221.5" x2="263.5" y1="148.3833" y2="148.3833"/><line style="stroke: #A80036; stroke-width: 1.0;" x1="263.5" x2="263.5" y1="148.3833" y2="161.3833"/><line style="stroke: #A80036; stroke-width: 1.0;" x1="222.5" x2="263.5" y1="161.3833" y2="161.3833"/><polygon fill="#A80036" points="232.5,157.3833,222.5,161.3833,232.5,165.3833,228.5,161.3833" style="stroke: #A80036; stroke-width: 1.0;"/><text fill="#000000" font-family="sans-serif" font-size="13" font-weight="bold" lengthAdjust="spacingAndGlyphs" textLength="7" x="228.5" y="143.5269">3</text><text fill="#000000" font-family="sans-serif" font-size="13" lengthAdjust="spacingAndGlyphs" textLength="73" x="239.5" y="143.5269">make_server</text><polygon fill="#A80036" points="353.5,194.1377,363.5,198.1377,353.5,202.1377,357.5,198.1377" style="stroke: #A80036; stroke-width: 1.0;"/><line style="stroke: #A80036; stroke-width: 1.0;" x1="221.5" x2="359.5" y1="198.1377" y2="198.1377"/><text fill="#000000" font-family="sans-serif" font-size="13" font-weight="bold" lengthAdjust="spacingAndGlyphs" textLength="7" x="228.5" y="193.2813">4</text><text fill="#000000" font-family="sans-serif" font-size="13" lengthAdjust="spacingAndGlyphs" text-decoration="underline" textLength="17" x="239.5" y="193.2813">init</text><line style="stroke: #000000; stroke-width: 1.0;" x1="239.5" x2="256.5" y1="195.2813" y2="195.2813"/><path d="M370,174.3833 L370,201.3833 L564,201.3833 L564,184.3833 L554,174.3833 L370,174.3833 " fill="#FBFB77" filter="url(#fvzucnkmrhyl5)" style="stroke: #A80036; stroke-width: 1.0;"/><path d="M554,174.3833 L554,184.3833 L564,184.3833 L554,174.3833 " fill="#FBFB77" style="stroke: #A80036; stroke-width: 1.0;"/><text fill="#000000" font-family="sans-serif" font-size="13" lengthAdjust="spacingAndGlyphs" textLength="173" x="376" y="194.2813">handler:WSGIRequestHandler</text><polygon fill="#A80036" points="521,230.8921,531,234.8921,521,238.8921,525,234.8921" style="stroke: #A80036; stroke-width: 1.0;"/><line style="stroke: #A80036; stroke-width: 1.0;" x1="365.5" x2="527" y1="234.8921" y2="234.8921"/><text fill="#000000" font-family="sans-serif" font-size="13" font-weight="bold" lengthAdjust="spacingAndGlyphs" textLength="7" x="372.5" y="230.0356">5</text><text fill="#000000" font-family="sans-serif" font-size="13" lengthAdjust="spacingAndGlyphs" text-decoration="underline" textLength="17" x="383.5" y="230.0356">init</text><line style="stroke: #000000; stroke-width: 1.0;" x1="383.5" x2="400.5" y1="232.0356" y2="232.0356"/><polygon fill="#A80036" points="679.5,267.6465,689.5,271.6465,679.5,275.6465,683.5,271.6465" style="stroke: #A80036; stroke-width: 1.0;"/><line style="stroke: #A80036; stroke-width: 1.0; stroke-dasharray: 2.0,2.0;" x1="533" x2="685.5" y1="271.6465" y2="271.6465"/><text fill="#000000" font-family="sans-serif" font-size="13" font-weight="bold" lengthAdjust="spacingAndGlyphs" textLength="7" x="540" y="266.79">6</text><text fill="#000000" font-family="sans-serif" font-size="13" lengthAdjust="spacingAndGlyphs" text-decoration="underline" textLength="17" x="551" y="266.79">init</text><line style="stroke: #000000; stroke-width: 1.0;" x1="551" x2="568" y1="268.79" y2="268.79"/><path d="M696,247.8921 L696,274.8921 L973,274.8921 L973,257.8921 L963,247.8921 L696,247.8921 " fill="#FBFB77" filter="url(#fvzucnkmrhyl5)" style="stroke: #A80036; stroke-width: 1.0;"/><path d="M963,247.8921 L963,257.8921 L973,257.8921 L963,247.8921 " fill="#FBFB77" style="stroke: #A80036; stroke-width: 1.0;"/><text fill="#000000" font-family="sans-serif" font-size="13" lengthAdjust="spacingAndGlyphs" textLength="256" x="702" y="267.79">RequestHandlerClass:WSGIRequestHandler</text><polygon fill="#A80036" points="864.5,304.4009,874.5,308.4009,864.5,312.4009,868.5,308.4009" style="stroke: #A80036; stroke-width: 1.0;"/><line style="stroke: #A80036; stroke-width: 1.0;" x1="691.5" x2="870.5" y1="308.4009" y2="308.4009"/><text fill="#000000" font-family="sans-serif" font-size="13" font-weight="bold" lengthAdjust="spacingAndGlyphs" textLength="7" x="698.5" y="303.5444">7</text><text fill="#000000" font-family="sans-serif" font-size="13" lengthAdjust="spacingAndGlyphs" text-decoration="underline" textLength="17" x="709.5" y="303.5444">init</text><line style="stroke: #000000; stroke-width: 1.0;" x1="709.5" x2="726.5" y1="305.5444" y2="305.5444"/><polygon fill="#A80036" points="544,336.1553,534,340.1553,544,344.1553,540,340.1553" style="stroke: #A80036; stroke-width: 1.0;"/><line style="stroke: #A80036; stroke-width: 1.0;" x1="538" x2="690.5" y1="340.1553" y2="340.1553"/><text fill="#000000" font-family="sans-serif" font-size="13" font-weight="bold" lengthAdjust="spacingAndGlyphs" textLength="7" x="550" y="335.2988">8</text><text fill="#000000" font-family="sans-serif" font-size="13" lengthAdjust="spacingAndGlyphs" textLength="65" x="561" y="335.2988">server_bind</text><line style="stroke: #A80036; stroke-width: 1.0;" x1="691.5" x2="733.5" y1="371.9097" y2="371.9097"/><line style="stroke: #A80036; stroke-width: 1.0;" x1="733.5" x2="733.5" y1="371.9097" y2="384.9097"/><line style="stroke: #A80036; stroke-width: 1.0;" x1="692.5" x2="733.5" y1="384.9097" y2="384.9097"/><polygon fill="#A80036" points="702.5,380.9097,692.5,384.9097,702.5,388.9097,698.5,384.9097" style="stroke: #A80036; stroke-width: 1.0;"/><text fill="#000000" font-family="sans-serif" font-size="13" font-weight="bold" lengthAdjust="spacingAndGlyphs" textLength="7" x="698.5" y="367.0532">9</text><text fill="#000000" font-family="sans-serif" font-size="13" lengthAdjust="spacingAndGlyphs" textLength="85" x="709.5" y="367.0532">server_activate</text><polygon fill="#A80036" points="353.5,412.6641,363.5,416.6641,353.5,420.6641,357.5,416.6641" style="stroke: #A80036; stroke-width: 1.0;"/><line style="stroke: #A80036; stroke-width: 1.0;" x1="221.5" x2="359.5" y1="416.6641" y2="416.6641"/><text fill="#000000" font-family="sans-serif" font-size="13" font-weight="bold" lengthAdjust="spacingAndGlyphs" textLength="14" x="228.5" y="411.8076">10</text><text fill="#000000" font-family="sans-serif" font-size="13" lengthAdjust="spacingAndGlyphs" textLength="74" x="246.5" y="411.8076">serve_forever</text><polygon fill="#A80036" points="521,444.4185,531,448.4185,521,452.4185,525,448.4185" style="stroke: #A80036; stroke-width: 1.0;"/><line style="stroke: #A80036; stroke-width: 1.0;" x1="365.5" x2="527" y1="448.4185" y2="448.4185"/><text fill="#000000" font-family="sans-serif" font-size="13" font-weight="bold" lengthAdjust="spacingAndGlyphs" textLength="14" x="372.5" y="443.562">11</text><text fill="#000000" font-family="sans-serif" font-size="13" lengthAdjust="spacingAndGlyphs" textLength="74" x="390.5" y="443.562">serve_forever</text><polygon fill="#A80036" points="679.5,476.1729,689.5,480.1729,679.5,484.1729,683.5,480.1729" style="stroke: #A80036; stroke-width: 1.0;"/><line style="stroke: #A80036; stroke-width: 1.0; stroke-dasharray: 2.0,2.0;" x1="533" x2="685.5" y1="480.1729" y2="480.1729"/><text fill="#000000" font-family="sans-serif" font-size="13" font-weight="bold" lengthAdjust="spacingAndGlyphs" textLength="14" x="540" y="475.3164">12</text><text fill="#000000" font-family="sans-serif" font-size="13" lengthAdjust="spacingAndGlyphs" textLength="74" x="558" y="475.3164">serve_forever</text><polygon fill="#A80036" points="864.5,507.9272,874.5,511.9272,864.5,515.9272,868.5,511.9272" style="stroke: #A80036; stroke-width: 1.0;"/><line style="stroke: #A80036; stroke-width: 1.0; stroke-dasharray: 2.0,2.0;" x1="691.5" x2="870.5" y1="511.9272" y2="511.9272"/><text fill="#000000" font-family="sans-serif" font-size="13" font-weight="bold" lengthAdjust="spacingAndGlyphs" textLength="14" x="698.5" y="507.0708">13</text><text fill="#000000" font-family="sans-serif" font-size="13" lengthAdjust="spacingAndGlyphs" textLength="74" x="716.5" y="507.0708">serve_forever</text><line style="stroke: #A80036; stroke-width: 1.0;" x1="876.5" x2="918.5" y1="543.6816" y2="543.6816"/><line style="stroke: #A80036; stroke-width: 1.0;" x1="918.5" x2="918.5" y1="543.6816" y2="556.6816"/><line style="stroke: #A80036; stroke-width: 1.0;" x1="877.5" x2="918.5" y1="556.6816" y2="556.6816"/><polygon fill="#A80036" points="887.5,552.6816,877.5,556.6816,887.5,560.6816,883.5,556.6816" style="stroke: #A80036; stroke-width: 1.0;"/><text fill="#000000" font-family="sans-serif" font-size="13" font-weight="bold" lengthAdjust="spacingAndGlyphs" textLength="14" x="883.5" y="538.8252">14</text><text fill="#000000" font-family="sans-serif" font-size="13" lengthAdjust="spacingAndGlyphs" textLength="147" x="901.5" y="538.8252">_handle_request_noblock</text><polygon fill="#A80036" points="376.5,589.436,366.5,593.436,376.5,597.436,372.5,593.436" style="stroke: #A80036; stroke-width: 1.0;"/><line style="stroke: #A80036; stroke-width: 1.0;" x1="370.5" x2="875.5" y1="593.436" y2="593.436"/><text fill="#000000" font-family="sans-serif" font-size="13" font-weight="bold" lengthAdjust="spacingAndGlyphs" textLength="14" x="382.5" y="588.5796">15</text><text fill="#000000" font-family="sans-serif" font-size="13" lengthAdjust="spacingAndGlyphs" textLength="68" x="400.5" y="588.5796">get_request</text><path d="M291,569.6816 L291,596.6816 L356,596.6816 L356,579.6816 L346,569.6816 L291,569.6816 " fill="#FBFB77" filter="url(#fvzucnkmrhyl5)" style="stroke: #A80036; stroke-width: 1.0;"/><path d="M346,569.6816 L346,579.6816 L356,579.6816 L346,569.6816 " fill="#FBFB77" style="stroke: #A80036; stroke-width: 1.0;"/><text fill="#000000" font-family="sans-serif" font-size="13" lengthAdjust="spacingAndGlyphs" textLength="44" x="297" y="589.5796">override</text><line style="stroke: #A80036; stroke-width: 1.0;" x1="876.5" x2="918.5" y1="630.1904" y2="630.1904"/><line style="stroke: #A80036; stroke-width: 1.0;" x1="918.5" x2="918.5" y1="630.1904" y2="643.1904"/><line style="stroke: #A80036; stroke-width: 1.0;" x1="877.5" x2="918.5" y1="643.1904" y2="643.1904"/><polygon fill="#A80036" points="887.5,639.1904,877.5,643.1904,887.5,647.1904,883.5,643.1904" style="stroke: #A80036; stroke-width: 1.0;"/><text fill="#000000" font-family="sans-serif" font-size="13" font-weight="bold" lengthAdjust="spacingAndGlyphs" textLength="14" x="883.5" y="625.334">16</text><text fill="#000000" font-family="sans-serif" font-size="13" lengthAdjust="spacingAndGlyphs" textLength="79" x="901.5" y="625.334">verify_request</text><line style="stroke: #A80036; stroke-width: 1.0;" x1="876.5" x2="918.5" y1="674.9448" y2="674.9448"/><line style="stroke: #A80036; stroke-width: 1.0;" x1="918.5" x2="918.5" y1="674.9448" y2="687.9448"/><line style="stroke: #A80036; stroke-width: 1.0;" x1="877.5" x2="918.5" y1="687.9448" y2="687.9448"/><polygon fill="#A80036" points="887.5,683.9448,877.5,687.9448,887.5,691.9448,883.5,687.9448" style="stroke: #A80036; stroke-width: 1.0;"/><text fill="#000000" font-family="sans-serif" font-size="13" font-weight="bold" lengthAdjust="spacingAndGlyphs" textLength="14" x="883.5" y="670.0884">17</text><text fill="#000000" font-family="sans-serif" font-size="13" lengthAdjust="spacingAndGlyphs" textLength="96" x="901.5" y="670.0884">process_request</text><line style="stroke: #A80036; stroke-width: 1.0;" x1="876.5" x2="918.5" y1="719.6992" y2="719.6992"/><line style="stroke: #A80036; stroke-width: 1.0;" x1="918.5" x2="918.5" y1="719.6992" y2="732.6992"/><line style="stroke: #A80036; stroke-width: 1.0;" x1="877.5" x2="918.5" y1="732.6992" y2="732.6992"/><polygon fill="#A80036" points="887.5,728.6992,877.5,732.6992,887.5,736.6992,883.5,732.6992" style="stroke: #A80036; stroke-width: 1.0;"/><text fill="#000000" font-family="sans-serif" font-size="13" font-weight="bold" lengthAdjust="spacingAndGlyphs" textLength="14" x="883.5" y="714.8428">18</text><text fill="#000000" font-family="sans-serif" font-size="13" lengthAdjust="spacingAndGlyphs" textLength="80" x="901.5" y="714.8428">finish_request</text><polygon fill="#A80036" points="1072.5,765.4536,1082.5,769.4536,1072.5,773.4536,1076.5,769.4536" style="stroke: #A80036; stroke-width: 1.0;"/><line style="stroke: #A80036; stroke-width: 1.0;" x1="876.5" x2="1078.5" y1="769.4536" y2="769.4536"/><text fill="#000000" font-family="sans-serif" font-size="13" font-weight="bold" lengthAdjust="spacingAndGlyphs" textLength="14" x="883.5" y="764.5972">19</text><text fill="#000000" font-family="sans-serif" font-size="13" lengthAdjust="spacingAndGlyphs" text-decoration="underline" textLength="17" x="901.5" y="764.5972">init</text><line style="stroke: #000000; stroke-width: 1.0;" x1="901.5" x2="918.5" y1="766.5972" y2="766.5972"/><path d="M721,745.6992 L721,772.6992 L867,772.6992 L867,755.6992 L857,745.6992 L721,745.6992 " fill="#FBFB77" filter="url(#fvzucnkmrhyl5)" style="stroke: #A80036; stroke-width: 1.0;"/><path d="M857,745.6992 L857,755.6992 L867,755.6992 L857,745.6992 " fill="#FBFB77" style="stroke: #A80036; stroke-width: 1.0;"/><text fill="#000000" font-family="sans-serif" font-size="13" lengthAdjust="spacingAndGlyphs" textLength="125" x="727" y="765.5972">RequestHandlerClass</text><polygon fill="#A80036" points="1300,802.208,1310,806.208,1300,810.208,1304,806.208" style="stroke: #A80036; stroke-width: 1.0;"/><line style="stroke: #A80036; stroke-width: 1.0; stroke-dasharray: 2.0,2.0;" x1="1084.5" x2="1306" y1="806.208" y2="806.208"/><text fill="#000000" font-family="sans-serif" font-size="13" font-weight="bold" lengthAdjust="spacingAndGlyphs" textLength="14" x="1091.5" y="801.3516">20</text><text fill="#000000" font-family="sans-serif" font-size="13" lengthAdjust="spacingAndGlyphs" text-decoration="underline" textLength="17" x="1109.5" y="801.3516">init</text><line style="stroke: #000000; stroke-width: 1.0;" x1="1109.5" x2="1126.5" y1="803.3516" y2="803.3516"/><polygon fill="#A80036" points="1543,833.9624,1553,837.9624,1543,841.9624,1547,837.9624" style="stroke: #A80036; stroke-width: 1.0;"/><line style="stroke: #A80036; stroke-width: 1.0; stroke-dasharray: 2.0,2.0;" x1="1312" x2="1549" y1="837.9624" y2="837.9624"/><text fill="#000000" font-family="sans-serif" font-size="13" font-weight="bold" lengthAdjust="spacingAndGlyphs" textLength="14" x="1319" y="833.106">21</text><text fill="#000000" font-family="sans-serif" font-size="13" lengthAdjust="spacingAndGlyphs" text-decoration="underline" textLength="17" x="1337" y="833.106">init</text><line style="stroke: #000000; stroke-width: 1.0;" x1="1337" x2="1354" y1="835.106" y2="835.106"/><polygon fill="#A80036" points="1796.5,865.7168,1806.5,869.7168,1796.5,873.7168,1800.5,869.7168" style="stroke: #A80036; stroke-width: 1.0;"/><line style="stroke: #A80036; stroke-width: 1.0; stroke-dasharray: 2.0,2.0;" x1="1555" x2="1802.5" y1="869.7168" y2="869.7168"/><text fill="#000000" font-family="sans-serif" font-size="13" font-weight="bold" lengthAdjust="spacingAndGlyphs" textLength="14" x="1562" y="864.8604">22</text><text fill="#000000" font-family="sans-serif" font-size="13" lengthAdjust="spacingAndGlyphs" text-decoration="underline" textLength="17" x="1580" y="864.8604">init</text><line style="stroke: #000000; stroke-width: 1.0;" x1="1580" x2="1597" y1="866.8604" y2="866.8604"/><polygon fill="#A80036" points="1566,897.4712,1556,901.4712,1566,905.4712,1562,901.4712" style="stroke: #A80036; stroke-width: 1.0;"/><line style="stroke: #A80036; stroke-width: 1.0;" x1="1560" x2="1807.5" y1="901.4712" y2="901.4712"/><text fill="#000000" font-family="sans-serif" font-size="13" font-weight="bold" lengthAdjust="spacingAndGlyphs" textLength="14" x="1572" y="896.6147">23</text><text fill="#000000" font-family="sans-serif" font-size="13" lengthAdjust="spacingAndGlyphs" textLength="32" x="1590" y="896.6147">setup</text><polygon fill="#A80036" points="1095.5,934.2256,1085.5,938.2256,1095.5,942.2256,1091.5,938.2256" style="stroke: #A80036; stroke-width: 1.0;"/><line style="stroke: #A80036; stroke-width: 1.0;" x1="1089.5" x2="1807.5" y1="938.2256" y2="938.2256"/><text fill="#000000" font-family="sans-serif" font-size="13" font-weight="bold" lengthAdjust="spacingAndGlyphs" textLength="14" x="1101.5" y="933.3691">24</text><text fill="#000000" font-family="sans-serif" font-size="13" lengthAdjust="spacingAndGlyphs" textLength="38" x="1119.5" y="933.3691">handle</text><path d="M1010,914.4712 L1010,941.4712 L1075,941.4712 L1075,924.4712 L1065,914.4712 L1010,914.4712 " fill="#FBFB77" filter="url(#fvzucnkmrhyl5)" style="stroke: #A80036; stroke-width: 1.0;"/><path d="M1065,914.4712 L1065,924.4712 L1075,924.4712 L1065,914.4712 " fill="#FBFB77" style="stroke: #A80036; stroke-width: 1.0;"/><text fill="#000000" font-family="sans-serif" font-size="13" lengthAdjust="spacingAndGlyphs" textLength="44" x="1016" y="934.3691">override</text><polygon fill="#A80036" points="1300,970.98,1310,974.98,1300,978.98,1304,974.98" style="stroke: #A80036; stroke-width: 1.0;"/><line style="stroke: #A80036; stroke-width: 1.0;" x1="1084.5" x2="1306" y1="974.98" y2="974.98"/><text fill="#000000" font-family="sans-serif" font-size="13" font-weight="bold" lengthAdjust="spacingAndGlyphs" textLength="14" x="1091.5" y="970.1235">25</text><text fill="#000000" font-family="sans-serif" font-size="13" lengthAdjust="spacingAndGlyphs" textLength="38" x="1109.5" y="970.1235">handle</text><polygon fill="#A80036" points="1095.5,1007.7344,1085.5,1011.7344,1095.5,1015.7344,1091.5,1011.7344" style="stroke: #A80036; stroke-width: 1.0;"/><line style="stroke: #A80036; stroke-width: 1.0;" x1="1089.5" x2="1311" y1="1011.7344" y2="1011.7344"/><text fill="#000000" font-family="sans-serif" font-size="13" font-weight="bold" lengthAdjust="spacingAndGlyphs" textLength="14" x="1101.5" y="1006.8779">26</text><text fill="#000000" font-family="sans-serif" font-size="13" lengthAdjust="spacingAndGlyphs" textLength="116" x="1119.5" y="1006.8779">handle_one_request</text><path d="M1010,987.98 L1010,1014.98 L1075,1014.98 L1075,997.98 L1065,987.98 L1010,987.98 " fill="#FBFB77" filter="url(#fvzucnkmrhyl5)" style="stroke: #A80036; stroke-width: 1.0;"/><path d="M1065,987.98 L1065,997.98 L1075,997.98 L1065,987.98 " fill="#FBFB77" style="stroke: #A80036; stroke-width: 1.0;"/><text fill="#000000" font-family="sans-serif" font-size="13" lengthAdjust="spacingAndGlyphs" textLength="44" x="1016" y="1007.8779">override</text><line style="stroke: #A80036; stroke-width: 1.0;" x1="1084.5" x2="1126.5" y1="1048.4888" y2="1048.4888"/><line style="stroke: #A80036; stroke-width: 1.0;" x1="1126.5" x2="1126.5" y1="1048.4888" y2="1061.4888"/><line style="stroke: #A80036; stroke-width: 1.0;" x1="1085.5" x2="1126.5" y1="1061.4888" y2="1061.4888"/><polygon fill="#A80036" points="1095.5,1057.4888,1085.5,1061.4888,1095.5,1065.4888,1091.5,1061.4888" style="stroke: #A80036; stroke-width: 1.0;"/><text fill="#000000" font-family="sans-serif" font-size="13" font-weight="bold" lengthAdjust="spacingAndGlyphs" textLength="14" x="1091.5" y="1043.6323">27</text><text fill="#000000" font-family="sans-serif" font-size="13" lengthAdjust="spacingAndGlyphs" textLength="82" x="1109.5" y="1043.6323">parse_request</text><polygon fill="#A80036" points="1300,1089.2432,1310,1093.2432,1300,1097.2432,1304,1093.2432" style="stroke: #A80036; stroke-width: 1.0;"/><line style="stroke: #A80036; stroke-width: 1.0; stroke-dasharray: 2.0,2.0;" x1="1084.5" x2="1306" y1="1093.2432" y2="1093.2432"/><text fill="#000000" font-family="sans-serif" font-size="13" font-weight="bold" lengthAdjust="spacingAndGlyphs" textLength="14" x="1091.5" y="1088.3867">28</text><text fill="#000000" font-family="sans-serif" font-size="13" lengthAdjust="spacingAndGlyphs" textLength="82" x="1109.5" y="1088.3867">parse_request</text><line style="stroke: #A80036; stroke-width: 1.0;" x1="1084.5" x2="1126.5" y1="1124.9976" y2="1124.9976"/><line style="stroke: #A80036; stroke-width: 1.0;" x1="1126.5" x2="1126.5" y1="1124.9976" y2="1137.9976"/><line style="stroke: #A80036; stroke-width: 1.0;" x1="1085.5" x2="1126.5" y1="1137.9976" y2="1137.9976"/><polygon fill="#A80036" points="1095.5,1133.9976,1085.5,1137.9976,1095.5,1141.9976,1091.5,1137.9976" style="stroke: #A80036; stroke-width: 1.0;"/><text fill="#000000" font-family="sans-serif" font-size="13" font-weight="bold" lengthAdjust="spacingAndGlyphs" textLength="14" x="1091.5" y="1120.1411">29</text><text fill="#000000" font-family="sans-serif" font-size="13" lengthAdjust="spacingAndGlyphs" textLength="51" x="1109.5" y="1120.1411">run_wsgi</text><path d="M1020,1107.7432 L1020,1134.7432 L1075,1134.7432 L1075,1117.7432 L1065,1107.7432 L1020,1107.7432 " fill="#FBFB77" filter="url(#fvzucnkmrhyl5)" style="stroke: #A80036; stroke-width: 1.0;"/><path d="M1065,1107.7432 L1065,1117.7432 L1075,1117.7432 L1065,1107.7432 " fill="#FBFB77" style="stroke: #A80036; stroke-width: 1.0;"/><text fill="#000000" font-family="sans-serif" font-size="13" lengthAdjust="spacingAndGlyphs" textLength="34" x="1026" y="1127.6411">begin!</text><line style="stroke: #A80036; stroke-width: 1.0;" x1="1084.5" x2="1126.5" y1="1169.752" y2="1169.752"/><line style="stroke: #A80036; stroke-width: 1.0;" x1="1126.5" x2="1126.5" y1="1169.752" y2="1182.752"/><line style="stroke: #A80036; stroke-width: 1.0;" x1="1085.5" x2="1126.5" y1="1182.752" y2="1182.752"/><polygon fill="#A80036" points="1095.5,1178.752,1085.5,1182.752,1095.5,1186.752,1091.5,1182.752" style="stroke: #A80036; stroke-width: 1.0;"/><text fill="#000000" font-family="sans-serif" font-size="13" font-weight="bold" lengthAdjust="spacingAndGlyphs" textLength="14" x="1091.5" y="1164.8955">30</text><text fill="#000000" font-family="sans-serif" font-size="13" lengthAdjust="spacingAndGlyphs" textLength="79" x="1109.5" y="1164.8955">make_environ</text><line style="stroke: #A80036; stroke-width: 1.0;" x1="1084.5" x2="1126.5" y1="1214.5063" y2="1214.5063"/><line style="stroke: #A80036; stroke-width: 1.0;" x1="1126.5" x2="1126.5" y1="1214.5063" y2="1227.5063"/><line style="stroke: #A80036; stroke-width: 1.0;" x1="1085.5" x2="1126.5" y1="1227.5063" y2="1227.5063"/><polygon fill="#A80036" points="1095.5,1223.5063,1085.5,1227.5063,1095.5,1231.5063,1091.5,1227.5063" style="stroke: #A80036; stroke-width: 1.0;"/><text fill="#000000" font-family="sans-serif" font-size="13" font-weight="bold" lengthAdjust="spacingAndGlyphs" textLength="14" x="1091.5" y="1209.6499">31</text><text fill="#000000" font-family="sans-serif" font-size="13" lengthAdjust="spacingAndGlyphs" textLength="101" x="1109.5" y="1209.6499">run_wsgi.execute</text><path d="M891,1197.252 L891,1224.252 L1075,1224.252 L1075,1207.252 L1065,1197.252 L891,1197.252 " fill="#FBFB77" filter="url(#fvzucnkmrhyl5)" style="stroke: #A80036; stroke-width: 1.0;"/><path d="M1065,1197.252 L1065,1207.252 L1075,1207.252 L1065,1197.252 " fill="#FBFB77" style="stroke: #A80036; stroke-width: 1.0;"/><text fill="#000000" font-family="sans-serif" font-size="13" lengthAdjust="spacingAndGlyphs" textLength="163" x="897" y="1217.1499">app(environ, start_response)</text><polygon fill="#A80036" points="1566,1255.2607,1556,1259.2607,1566,1263.2607,1562,1259.2607" style="stroke: #A80036; stroke-width: 1.0;"/><line style="stroke: #A80036; stroke-width: 1.0;" x1="1560" x2="1807.5" y1="1259.2607" y2="1259.2607"/><text fill="#000000" font-family="sans-serif" font-size="13" font-weight="bold" lengthAdjust="spacingAndGlyphs" textLength="14" x="1572" y="1254.4043">32</text><text fill="#000000" font-family="sans-serif" font-size="13" lengthAdjust="spacingAndGlyphs" textLength="30" x="1590" y="1254.4043">finish</text><line style="stroke: #A80036; stroke-width: 1.0;" x1="365.5" x2="407.5" y1="1291.0151" y2="1291.0151"/><line style="stroke: #A80036; stroke-width: 1.0;" x1="407.5" x2="407.5" y1="1291.0151" y2="1304.0151"/><line style="stroke: #A80036; stroke-width: 1.0;" x1="366.5" x2="407.5" y1="1304.0151" y2="1304.0151"/><polygon fill="#A80036" points="376.5,1300.0151,366.5,1304.0151,376.5,1308.0151,372.5,1304.0151" style="stroke: #A80036; stroke-width: 1.0;"/><text fill="#000000" font-family="sans-serif" font-size="13" font-weight="bold" lengthAdjust="spacingAndGlyphs" textLength="14" x="372.5" y="1286.1587">33</text><text fill="#000000" font-family="sans-serif" font-size="13" lengthAdjust="spacingAndGlyphs" textLength="72" x="390.5" y="1286.1587">server_close</text><!--
@startuml flask-callflow
autonumber
main -> FlaskApp: run
    FlaskApp -> werkzeug: run_simple
    note left: application:self
        werkzeug -> werkzeug: make_server
            werkzeug -> werkzeug.BaseWSGIServer: __init__
            note right: handler:WSGIRequestHandler
                werkzeug.BaseWSGIServer -> http.HTTPServer: __init__
                http.HTTPServer - -> socketserver.TCPServer: __init__
                note right: RequestHandlerClass:WSGIRequestHandler
                    socketserver.TCPServer -> socketserver.BaseServer: __init__
                    socketserver.TCPServer -> http.HTTPServer: server_bind
                    socketserver.TCPServer -> socketserver.TCPServer: server_activate
        werkzeug -> werkzeug.BaseWSGIServer: serve_forever
            werkzeug.BaseWSGIServer -> http.HTTPServer: serve_forever
            http.HTTPServer - -> socketserver.TCPServer: serve_forever
            socketserver.TCPServer - -> socketserver.BaseServer: serve_forever
                socketserver.BaseServer -> socketserver.BaseServer: _handle_request_noblock
                    socketserver.BaseServer -> werkzeug.BaseWSGIServer: get_request
                    note left: override
                    socketserver.BaseServer -> socketserver.BaseServer: verify_request
                    socketserver.BaseServer -> socketserver.BaseServer: process_request
                        socketserver.BaseServer -> socketserver.BaseServer: finish_request
                            socketserver.BaseServer -> werkzeug.WSGIRequestHandler: __init__
                            note left: RequestHandlerClass
                            werkzeug.WSGIRequestHandler - -> http.BaseHTTPRequestHandler: __init__
                            http.BaseHTTPRequestHandler - -> socketserver.StreamRequestHandler: __init__
                            socketserver.StreamRequestHandler - -> socketserver.BaseRequestHandler: __init__
                                socketserver.BaseRequestHandler -> socketserver.StreamRequestHandler: setup
                                socketserver.BaseRequestHandler -> werkzeug.WSGIRequestHandler: handle
                                note left: override
                                    werkzeug.WSGIRequestHandler -> http.BaseHTTPRequestHandler: handle
                                        http.BaseHTTPRequestHandler -> werkzeug.WSGIRequestHandler: handle_one_request
                                        note left: override
                                            werkzeug.WSGIRequestHandler -> werkzeug.WSGIRequestHandler: parse_request
                                            werkzeug.WSGIRequestHandler - -> http.BaseHTTPRequestHandler: parse_request
                                            werkzeug.WSGIRequestHandler -> werkzeug.WSGIRequestHandler: run_wsgi
                                            note left: begin!
                                                werkzeug.WSGIRequestHandler -> werkzeug.WSGIRequestHandler: make_environ
                                                werkzeug.WSGIRequestHandler -> werkzeug.WSGIRequestHandler: run_wsgi.execute
                                                note left: app(environ, start_response)
                                socketserver.BaseRequestHandler -> socketserver.StreamRequestHandler: finish
            werkzeug.BaseWSGIServer -> werkzeug.BaseWSGIServer: server_close
@enduml

PlantUML version 1.2018.12(Sun Oct 21 18:15:15 CST 2018)
(GPL source distribution)
Java Runtime: Java(TM) SE Runtime Environment
JVM: Java HotSpot(TM) 64-Bit Server VM
Java Version: 1.8.0_192-b12
Operating System: Windows 10
OS Version: 10.0
Default Encoding: GBK
Language: zh
Country: CN
--></g></svg>
